<?xml version="1.0" encoding="UTF-8"?>
<svg id="Layer_2" data-name="Layer 2" xmlns="http://www.w3.org/2000/svg" viewBox="0 0 51.82 61.93">
  <defs>
    <style>
      .cls-1 {
        stroke-width: 1.26px;
      }

      .cls-1, .cls-2, .cls-3 {
        fill: #fff;
      }

      .cls-1, .cls-3 {
        stroke: #ca9e43;
        stroke-miterlimit: 10;
      }

      .cls-4 {
        fill: #ca9e43;
      }

      .cls-3 {
        stroke-width: .63px;
      }
    </style>
  </defs>
  <g id="adddosmeter">
    <g>
      <path class="cls-4" d="M19.04,43.8c0,1.3,0,2.55,0,3.8,0,3.36,0,6.71,0,10.07,0,2.58-1.67,4.24-4.25,4.26-1.82,.01-3.64,.01-5.46,0-2.63-.02-4.29-1.67-4.29-4.3,0-4.32,0-8.64,0-12.95,0-.28,0-.57,0-.88-.35-.08-.65-.14-.95-.21C1.72,43.06,.06,41.16,.04,38.76c-.04-4.99-.08-9.99,.01-14.98,.08-4.41,3.59-7.76,8.01-7.81,2.65-.02,5.31-.03,7.96,0,4.38,.05,7.88,3.38,7.97,7.76,.1,5.02,.06,10.04,.01,15.06-.02,2.29-1.54,4.1-3.76,4.7-.38,.1-.76,.19-1.22,.3Zm-2.01,6.22c0-2.63-.03-5.25,.03-7.88,0-.38,.33-.92,.66-1.07,.27-.13,.75,.21,1.14,.34,.21,.07,.44,.24,.63,.21,1.51-.27,2.53-1.41,2.53-2.91,.02-4.99,.04-9.99-.01-14.98-.04-3.13-2.63-5.68-5.76-5.73-2.81-.05-5.62-.04-8.43,0-3.07,.05-5.69,2.53-5.74,5.58-.09,5.07-.05,10.14-.02,15.21,0,1.48,1.14,2.67,2.61,2.85,.18,.02,.39-.21,.6-.29,.34-.13,.76-.41,1.03-.31,.31,.12,.55,.54,.72,.89,.1,.21,.03,.51,.03,.77,0,4.94,0,9.88,0,14.82,0,1.69,.73,2.42,2.42,2.43,1.74,0,3.49,.01,5.23,0,1.6-.01,2.34-.77,2.34-2.35,0-2.52,0-5.04,0-7.57Z"/>
      <path class="cls-4" d="M12.01,0c3.85-.01,7.02,3.14,7.02,6.98,0,3.81-3.13,6.96-6.95,6.98-3.87,.02-7.03-3.09-7.06-6.94C5,3.18,8.15,.01,12.01,0Zm0,11.96c2.79,.01,5.02-2.2,5.02-4.97,0-2.77-2.25-5.02-5.01-5-2.74,.01-4.96,2.22-4.98,4.95-.02,2.78,2.18,5.01,4.97,5.02Z"/>
      <path class="cls-2" d="M17.03,50.02c0,2.52,0,5.04,0,7.57,0,1.59-.75,2.34-2.34,2.35-1.74,.01-3.49,.01-5.23,0-1.7,0-2.42-.74-2.42-2.43,0-4.94,0-9.88,0-14.82,0-.26,.08-.56-.03-.77-.17-.34-.41-.77-.72-.89-.27-.1-.68,.18-1.03,.31-.21,.08-.42,.31-.6,.29-1.47-.19-2.6-1.37-2.61-2.85-.03-5.07-.07-10.14,.02-15.21,.05-3.05,2.68-5.53,5.74-5.58,2.81-.04,5.62-.05,8.43,0,3.13,.05,5.73,2.59,5.76,5.73,.06,4.99,.03,9.99,.01,14.98,0,1.51-1.02,2.65-2.53,2.91-.19,.03-.42-.14-.63-.21-.39-.13-.87-.46-1.14-.34-.32,.16-.65,.69-.66,1.07-.06,2.63-.03,5.25-.03,7.88Zm-11.01-15.07c.53,0,1.02-.45,1-.98-.03-.6-.36-.97-.97-.98-.62-.01-.95,.37-1,.96-.04,.52,.45,1,.98,1Zm11.93,0c.57,.02,1.05-.42,1.08-.95,.02-.53-.42-1.01-.96-1.01-.62,0-.99,.33-1.02,.94-.03,.62,.35,.94,.9,1.02Zm-10.92,3.08c0-.61-.47-1.07-1-1.06-.53,0-1.02,.48-.98,1,.05,.59,.38,.97,1,.96,.62,0,.92-.39,.98-.91Zm10.98-1.06c-.54,.01-1.01,.48-.97,1.01,.04,.6,.39,.96,1.01,.95,.62,0,.94-.4,.97-.99,.03-.52-.48-.98-1.01-.97ZM6.07,24.98c-.64,.03-1.01,.37-1.02,.96,0,.59,.34,.98,.97,.99,.62,0,.99-.35,1-.95,.01-.61-.36-.94-.94-1Zm11.97,1.96c.6-.05,.97-.38,.97-.98,0-.59-.36-.97-.98-.97-.62,0-.98,.36-.98,.97,0,.61,.37,.93,.99,.98Zm-11.96,4.02c.58-.1,.94-.42,.94-1.04,0-.53-.5-.98-1.03-.96-.52,.02-1.01,.52-.96,1.04,.06,.6,.42,.92,1.04,.97Zm11.87,0c.6,0,1.08-.46,1.09-.98,0-.51-.48-1.01-.99-1.01-.52,0-1.02,.47-1,.99,.02,.61,.39,.93,.9,1Z"/>
      <path class="cls-2" d="M12.01,11.96c-2.79-.01-4.99-2.24-4.97-5.02,.02-2.73,2.24-4.94,4.98-4.95,2.76-.01,5.01,2.24,5.01,5,0,2.77-2.24,4.99-5.02,4.97Z"/>
      <path class="cls-4" d="M6.02,34.95c-.53,0-1.02-.48-.98-1,.05-.59,.38-.97,1-.96,.62,.01,.95,.38,.97,.98,.02,.53-.47,.99-1,.98Z"/>
      <path class="cls-4" d="M17.95,34.94c-.55-.09-.93-.41-.9-1.02,.03-.6,.4-.94,1.02-.94,.54,0,.98,.48,.96,1.01-.02,.53-.51,.97-1.08,.95Z"/>
      <path class="cls-4" d="M7.03,38.02c-.07,.51-.36,.9-.98,.91-.62,0-.95-.37-1-.96-.04-.52,.45-1,.98-1,.53,0,1,.45,1,1.06Z"/>
      <path class="cls-4" d="M18.01,36.96c.53-.01,1.04,.45,1.01,.97-.03,.59-.35,.98-.97,.99-.62,0-.96-.35-1.01-.95-.04-.53,.43-1,.97-1.01Z"/>
      <path class="cls-4" d="M6.07,24.98c.59,.06,.96,.39,.94,1-.01,.6-.38,.96-1,.95-.62,0-.98-.39-.97-.99,0-.59,.38-.94,1.02-.96Z"/>
      <path class="cls-4" d="M18.04,26.94c-.62-.05-.99-.37-.99-.98,0-.61,.37-.96,.98-.97,.62,0,.98,.38,.98,.97,0,.6-.37,.94-.97,.98Z"/>
      <path class="cls-4" d="M6.08,30.96c-.61-.05-.97-.37-1.04-.97-.05-.51,.43-1.01,.96-1.04,.52-.02,1.03,.44,1.03,.96,0,.61-.36,.94-.94,1.04Z"/>
      <path class="cls-4" d="M17.94,30.95c-.52-.08-.88-.39-.9-1-.02-.52,.48-1,1-.99,.52,0,1,.5,.99,1.01,0,.52-.49,.99-1.09,.98Z"/>
    </g>
    <rect class="cls-1" x="27.31" y="8.84" width="23.89" height="33.6" rx="2.75" ry="2.75"/>
    <rect class="cls-4" x="28.65" y="11.25" width="21.21" height="9.83"/>
    <path class="cls-2" d="M42.36,19.1l-.64-4.85-.78,3.34-.57-2.25-.08,.28c-.07,.25-.35,.42-.68,.42h-.62c-.24,0-.46,.12-.5,.28l-.23,.83-.43-1.81-.78,3.76-.64-4.84-.77,3.34-.57-2.25-.08,.28c-.07,.25-.35,.42-.68,.42h-.62c-.25,0-.46,.12-.5,.28l-.23,.82-.43-1.81-.78,3.76-.64-4.85-.78,3.34-.57-2.25-.08,.28c-.07,.25-.35,.42-.68,.42h-.37v-.18h.37c.25,0,.46-.12,.51-.28l.26-.95,.56,2.19,.83-3.59,.63,4.77,.72-3.5,.45,1.91,.04-.14c.07-.25,.35-.42,.68-.42h.62c.25,0,.46-.12,.5-.28l.26-.95,.56,2.19,.83-3.59,.63,4.77,.72-3.5,.45,1.91,.04-.14c.07-.25,.35-.42,.68-.42h.62c.25,0,.46-.12,.51-.28l.26-.95,.55,2.19,.83-3.59,.63,4.77,.72-3.5,.45,1.91,.04-.14c.07-.25,.35-.42,.68-.42h.62c.25,0,.46-.12,.5-.28l.26-.95,.56,2.19,.83-3.59,.62,4.77,.72-3.5,.45,1.91,.04-.14c.07-.25,.35-.42,.68-.42h.26v.18h-.26c-.24,0-.46,.12-.5,.28l-.23,.83-.43-1.81-.78,3.76-.63-4.84-.78,3.34-.57-2.25-.08,.28c-.07,.25-.35,.42-.68,.42h-.62c-.25,0-.46,.12-.5,.28l-.23,.82-.43-1.81-.78,3.76Z"/>
    <circle class="cls-3" cx="44.87" cy="32.24" r="4.3"/>
    <rect class="cls-3" x="29.37" y="27.63" width="7.68" height="3.91" rx=".75" ry=".75"/>
    <path class="cls-2" d="M30.05,28.36h6.32c.15,0,.27,.07,.36,.18v-.11c0-.25-.21-.46-.46-.46h-6.11c-.25,0-.46,.21-.46,.46v.11c.09-.1,.21-.18,.36-.18Z"/>
    <path class="cls-3" d="M30.13,33.3h6.18c.42,0,.75,.34,.75,.75v2.4c0,.42-.34,.75-.75,.75h-6.18c-.42,0-.75-.34-.75-.75v-2.4c0-.42,.34-.75,.75-.75Z"/>
    <path class="cls-2" d="M30.05,34.08h6.32c.15,0,.27,.07,.36,.18v-.11c0-.25-.21-.46-.46-.46h-6.11c-.25,0-.46,.21-.46,.46v.11c.09-.1,.21-.18,.36-.18Z"/>
    <path class="cls-4" d="M44.41,31.12l-1.13-2.16c.48-.23,1.02-.36,1.59-.36s1.11,.13,1.59,.36l-1.13,2.16c-.14-.06-.3-.09-.46-.09s-.32,.03-.46,.09Zm-.74,1.28l-2.44,.1c.08,1.15,.69,2.14,1.59,2.75l1.31-2.06c-.25-.19-.42-.47-.46-.79Zm1.93,.79l1.31,2.06c.9-.61,1.51-1.61,1.59-2.75l-2.44-.1c-.04,.32-.21,.6-.46,.79Zm-.74-1.81c-.47,0-.86,.38-.86,.86s.38,.86,.86,.86,.86-.38,.86-.86-.38-.86-.86-.86Z"/>
  </g>
</svg>