<svg xmlns="http://www.w3.org/2000/svg" viewBox="0 0 65.82 51.5"><g id="Layer_2" data-name="Layer 2"><g id="dosedevice"><path d="M37.81,47a.58.58,0,0,1-.58.58h-.89v-3.2h.89a.57.57,0,0,1,.58.57Z" fill="#333"/><path d="M51.57,43.32c0,1.42-1,3.08-4,3.08H37.81v-.82H47.6c2.32,0,3.15-1.17,3.15-2.26,0-.84-.87-1.5-1.8-2.21S46.68,39.38,46.68,38V29.47l.82-.13V38c0,1,1,1.74,2,2.5S51.57,42.08,51.57,43.32Z" fill="#333"/><rect x="0.63" y="0.63" width="35.71" height="50.24" rx="2.75" fill="#fff" stroke="#ca9e43" stroke-miterlimit="10" stroke-width="1.26"/><rect x="2.63" y="4.22" width="31.71" height="14.7" fill="#ca9e43"/><path d="M38.64,5.41H65a.83.83,0,0,1,.83.83V30.06a0,0,0,0,1,0,0h-28a0,0,0,0,1,0,0V6.24A.83.83,0,0,1,38.64,5.41Z" fill="#ca9e43"/><path d="M60.6,11.74H43L44,9.36a1.73,1.73,0,0,1,1.62-1.11h12.5a1.73,1.73,0,0,1,1.61,1.11Z" fill="#fff"/><path d="M64,6.45H39.28a.45.45,0,0,0-.45.45V30.06h.84V7.3H64V30.06h.85V6.9a.45.45,0,0,0-.45-.45Z" fill="#fff"/><path d="M23.13,16l-.95-7.25L21,13.7l-.85-3.36-.12.42a1,1,0,0,1-1,.62H18.1a.76.76,0,0,0-.75.43L17,13l-.64-2.7L15.2,16l-.95-7.25-1.15,5-.86-3.36-.11.42a1,1,0,0,1-1,.62h-.93a.76.76,0,0,0-.76.43L9.08,13l-.64-2.7L7.28,16l-1-7.25-1.16,5-.85-3.36-.12.42a1,1,0,0,1-1,.62H2.63v-.27h.55a.76.76,0,0,0,.76-.42l.39-1.42.83,3.27L6.41,7.18l.93,7.13L8.42,9.08l.68,2.86.06-.2a1,1,0,0,1,1-.63h.93a.75.75,0,0,0,.75-.42l.39-1.42.83,3.27,1.25-5.36.93,7.13,1.09-5.23L17,11.94l0-.2a1,1,0,0,1,1-.63H19a.76.76,0,0,0,.76-.42l.39-1.42L21,12.54l1.24-5.36.94,7.13,1.08-5.23L25,11.94l.06-.2a1,1,0,0,1,1-.63H27a.75.75,0,0,0,.75-.42l.4-1.42.82,3.27,1.25-5.36.93,7.13L32.2,9.08l.68,2.86,0-.2a1,1,0,0,1,1-.63h.38v.27H34a.76.76,0,0,0-.75.43L32.86,13l-.64-2.7L31.05,16,30.1,8.71,29,13.7l-.86-3.36-.12.42a1,1,0,0,1-1,.62H26a.76.76,0,0,0-.76.43L24.93,13l-.64-2.7Z" fill="#fff"/><circle cx="26.89" cy="35.61" r="6.43" fill="#fff" stroke="#ca9e43" stroke-miterlimit="10" stroke-width="0.63"/><rect x="3.72" y="28.71" width="11.49" height="5.84" rx="0.75" fill="#fff" stroke="#ca9e43" stroke-miterlimit="10" stroke-width="0.63"/><path d="M4.74,29.8h9.44a.72.72,0,0,1,.54.26v-.15a.69.69,0,0,0-.69-.69H4.89a.69.69,0,0,0-.69.69v.15A.72.72,0,0,1,4.74,29.8Z" fill="#fff"/><rect x="3.72" y="37.19" width="11.49" height="5.84" rx="0.75" fill="#fff" stroke="#ca9e43" stroke-miterlimit="10" stroke-width="0.63"/><path d="M4.74,38.36h9.44a.72.72,0,0,1,.54.26v-.15a.69.69,0,0,0-.69-.69H4.89a.69.69,0,0,0-.69.69v.15A.72.72,0,0,1,4.74,38.36Z" fill="#fff"/><path d="M26.2,33.93,24.51,30.7a5.51,5.51,0,0,1,4.76,0l-1.69,3.23a2,2,0,0,0-.69-.13A2,2,0,0,0,26.2,33.93Zm-1.1,1.91L21.46,36a5.41,5.41,0,0,0,2.38,4.11L25.79,37A1.8,1.8,0,0,1,25.1,35.84ZM28,37l2,3.08A5.42,5.42,0,0,0,32.32,36l-3.64-.16A1.8,1.8,0,0,1,28,37Zm-1.1-2.71a1.28,1.28,0,1,0,1.28,1.28A1.28,1.28,0,0,0,26.89,34.32Z" fill="#ca9e43"/></g></g></svg>