<svg xmlns="http://www.w3.org/2000/svg" viewBox="0 0 39.36 51.19"><g id="Layer_2" data-name="Layer 2"><g id="incidents2"><ellipse cx="23.42" cy="3.24" rx="13.59" ry="3.11" fill="#fff" stroke="#ca9e43" stroke-miterlimit="10" stroke-width="0.25"/><ellipse cx="23.42" cy="41.52" rx="13.59" ry="3.11" fill="#fff" stroke="#ca9e43" stroke-miterlimit="10" stroke-width="0.25"/><path d="M10.09,41.29s0,0,0-.08v.08Z" fill="#fff" stroke="#ca9e43" stroke-miterlimit="10" stroke-width="0.25"/><path d="M36.77,41.29v-.08s0,0,0,.08Z" fill="#fff" stroke="#ca9e43" stroke-miterlimit="10" stroke-width="0.25"/><path d="M23.42,6.66c-7.37,0-13.35-1.32-13.35-2.94V41.21c0-1.63,6-3,13.35-3s13.35,1.32,13.35,3V3.72C36.77,5.34,30.8,6.66,23.42,6.66Zm.51,13.16a1.86,1.86,0,1,1-1.85,1.86A1.86,1.86,0,0,1,23.93,19.82ZM15.05,21a9,9,0,0,1,3.88-6.49.63.63,0,0,1,.9.2l2.72,4.72a2.67,2.67,0,0,0-1.27,2.27h-5.6A.63.63,0,0,1,15.05,21ZM27.91,30a9,9,0,0,1-8-.12.62.62,0,0,1-.26-.87l2.95-5.11a2.72,2.72,0,0,0,1.38.38A2.58,2.58,0,0,0,25.2,24l3,5.16A.63.63,0,0,1,27.91,30Zm4.43-8.36H26.58a2.65,2.65,0,0,0-1.38-2.33L28,14.55a.62.62,0,0,1,.88-.21,8.93,8.93,0,0,1,3,3.08A9,9,0,0,1,33,21,.64.64,0,0,1,32.34,21.68Z" fill="#fff" stroke="#ca9e43" stroke-miterlimit="10" stroke-width="0.25"/><path d="M23.5,32.78A108.8,108.8,0,0,1,10,32a.25.25,0,1,1,.06-.5,107,107,0,0,0,26.64,0,.24.24,0,0,1,.28.22.25.25,0,0,1-.21.28A105.23,105.23,0,0,1,23.5,32.78Z" fill="none" stroke="#ca9e43" stroke-miterlimit="10" stroke-width="0.25"/><path d="M23.5,10.5A108.82,108.82,0,0,0,10,11.34a.24.24,0,0,0-.22.28.26.26,0,0,0,.28.22,107.46,107.46,0,0,1,26.64,0,.24.24,0,0,0,.28-.21.24.24,0,0,0-.21-.28A105.24,105.24,0,0,0,23.5,10.5Z" fill="none" stroke="#ca9e43" stroke-miterlimit="10" stroke-width="0.25"/><circle cx="23.88" cy="21.91" r="9.88" fill="none" stroke="#ca9e43" stroke-miterlimit="10" stroke-width="0.25"/><polygon points="12.67 25.6 11.3 28.28 11.69 29.59 13.61 31.33 14.84 29.12 15.77 28.98 14.32 26.41 12.67 25.6" fill="none" stroke="#ca9e43" stroke-miterlimit="10" stroke-width="0.25"/><polygon points="11.96 28.16 11.49 23.94 10.43 22.94 11.3 23.53 12.69 18.8 11.94 21.91 12.88 22.19 11.94 22.25 11.65 23.94 11.96 28.16" fill="none" stroke="#ca9e43" stroke-miterlimit="10" stroke-width="0.25"/><polygon points="13.61 31.33 14.76 32.18 17.89 31.33 15.77 31.45 15.04 31.28 14.02 29.82 13.61 31.33" fill="none" stroke="#ca9e43" stroke-miterlimit="10" stroke-width="0.25"/><polygon points="12.45 29.82 14.79 31.93 18.14 31.28 15.77 31.45 16.39 30.02 15.04 31.63 14 30.16 12.45 29.82" fill="none" stroke="#ca9e43" stroke-miterlimit="10" stroke-width="0.25"/><path d="M39.2,50.65S38.05,48.58,37,48.41c-8.47-1.35-4.59-.86-7.51-1.49-2-.45-4.22-1.9-4-3.84a10.7,10.7,0,0,0,.21-1.24c0-2.31-4.75-2.19-6.44-2.42-2.31-.31-5.28-.61-7-2.25-1-.9-1.19-3-1.12-4.23a5.77,5.77,0,0,1,1.23-3.2l1.25,1.12,1.12-2,.86-.13-1.33-2.36-1.51-.75-1.26,2.46.12.41a5.87,5.87,0,0,0-.84.51,6.47,6.47,0,0,0-2.18,2.76c-1,2.28-.93,4.9-2.64,7C3.57,41.69,1.09,40,.18,42.15c-.4,1,1.62,1.21.75,1.74-1.19.72-.87,1,.4,2.16s1.89,1.71.51,2.34-2.16.63,0,1.25a28.28,28.28,0,0,0,15.69-.12c1.92-.57,3.93-1.54,5.95-.84,1,.34,1.87.89,2.84,1.26a15.69,15.69,0,0,0,5.11.78C34,50.8,39.76,51.51,39.2,50.65Z" fill="#fff" stroke="#ca9e43" stroke-miterlimit="10" stroke-width="0.25"/></g></g></svg>