<svg xmlns="http://www.w3.org/2000/svg" viewBox="0 0 67.31 54.28"><g id="Layer_2" data-name="Layer 2"><g id="incidents3"><path d="M45.11,5.29a5.11,5.11,0,0,1,5-5,5,5,0,0,1,5,5,5,5,0,0,1-5,5A5.11,5.11,0,0,1,45.11,5.29ZM46,54a3.42,3.42,0,0,1-3.36-3.36V27.24l-2.91,5a3.36,3.36,0,0,1-5.75-3.47L40,18.59a10.11,10.11,0,0,1,8.65-4.89h3.13a10.1,10.1,0,0,1,8.64,4.89l6.12,10.18a3.36,3.36,0,0,1-5.76,3.47l-3.1-5V50.67A3.3,3.3,0,0,1,54.36,54,3.41,3.41,0,0,1,51,50.67V37.23H49.32V50.67A3.3,3.3,0,0,1,46,54ZM23,9.92l8-2.43a1.68,1.68,0,0,1,1.81.56,1.53,1.53,0,0,1,0,1.88l-4.05,7.26,5.8,4L32,25.44l-5.3.82.59,8.34a1.72,1.72,0,0,1-.95,1.64A1.7,1.7,0,0,1,24.47,36L18.22,30.3,12.16,36A1.68,1.68,0,0,1,9.35,34.6l.59-8.34L1.67,25A1.68,1.68,0,0,1,1,21.93l6.89-4.74L3.72,9.93A1.68,1.68,0,0,1,5.66,7.49l8,2.43,3.09-7.77A1.62,1.62,0,0,1,18.22,1a1.68,1.68,0,0,1,1.66,1.15Z" fill="#fff" stroke="#ca9e43" stroke-miterlimit="10" stroke-width="0.5"/></g></g></svg>