<?xml version="1.0" encoding="UTF-8"?>
<svg id="Layer_2" data-name="Layer 2" xmlns="http://www.w3.org/2000/svg" viewBox="0 0 54.83 48.48">
  <defs>
    <style>
      .cls-1 {
        fill: #fff;
      }
    </style>
  </defs>
  <g id="source_White" data-name="source White">
    <g>
      <path class="cls-1" d="M39.37,48.48c-2.61,0-6.26-2.69-10.55-7.77l-.26-.32,1.41-1.85,.41,.46c3.54,3.88,6.57,6.1,8.3,6.1,.28,0,.53-.06,.72-.19,.48-.3,2.58-2.5-2.96-15.94l-.02-.06v-.12s.68-1.4,.68-1.4l.49-.89,.42,.91c2.47,5.3,7.71,17.92,2.98,20.65-.48,.28-1.03,.42-1.62,.42Zm-24.09-.13c-.62,0-1.19-.15-1.7-.44-2.59-1.5-2.49-6.55,.28-14.22l.14-.39,2.31,.3-.19,.58c-1.84,5.78-2.08,10.01-.61,10.78,.16,.08,.36,.13,.59,.13,.75,0,1.72-.43,2.91-1.27l.26-.19,.16,.28c.29,.53,.7,.94,1.2,1.23,.05,.02,.08,.03,.1,.04l.37,.2-.33,.27c-2.13,1.78-3.98,2.69-5.5,2.69Zm9.79-7.6c-.26-.47-.62-.85-1.07-1.14l-.29-.18,.23-.25c1.22-1.37,2.53-2.97,3.91-4.75l.04-.05,.1-.06,1.55-.11,1.02-.02-.58,.82c-1.01,1.45-2.6,3.62-4.44,5.79l-.27,.32-.2-.37Zm-.58-5.85c-1.27-1.84-2.58-3.9-3.79-5.95l-.04-.06v-.13s.55-1.4,.55-1.4l.43-.88,.48,.83c1.29,2.24,2.59,4.31,3.87,6.14l.21,.31-1.32,1.72-.39-.57Zm1.84-4.46h.96c2.65,0,5.02-.09,7.26-.28l.37-.03,.82,2-.69,.05c-2.27,.19-4.71,.29-7.05,.31h-.27s-1.4-2.05-1.4-2.05Zm-6.96,1.39c-5.82-.51-19.37-2.28-19.37-7.75,0-2.99,4.42-5.43,12.46-6.87l.4-.07,.9,2.15-.6,.13c-5.92,1.3-9.71,3.21-9.64,4.86,.02,.57,.88,3.49,15.29,5.4h.06s.1,.07,.1,.07l.87,1.29,.52,.87-1-.09Zm21.7-2.66l.6-.13c5.92-1.3,9.71-3.21,9.64-4.86-.02-.37-.31-1.35-2.74-2.46l-.29-.13,.17-.28c.31-.52,.47-1.08,.47-1.65v-.33s.34-.07,.34-.07h.04c3.68,1.36,5.54,3.08,5.54,5.13,0,2.99-4.42,5.43-12.46,6.87l-.41,.07-.89-2.15Zm-8.49-1.66c1.29-2.22,2.43-4.38,3.38-6.42l.16-.34,2.15,.29-.29,.63c-.99,2.08-2.12,4.25-3.27,6.26l-.03,.05-.09,.07c-.63,.16-1.05,.19-1.54,.22l-.95,.06,.48-.82Zm-16.04,.21l.3-.63c1-2.09,2.13-4.26,3.27-6.26l.03-.05,.09-.07c.58-.16,1.02-.19,1.53-.23l.95-.06-.48,.83c-1.29,2.24-2.43,4.4-3.38,6.43l-.16,.33-2.15-.28Zm16.16-6.26c-1.29-2.23-2.59-4.3-3.87-6.14l-.21-.3,1.32-1.73,.4,.58c1.32,1.91,2.63,3.97,3.79,5.96l.04,.06v.13s-.55,1.4-.55,1.4l-.43,.87-.48-.83Zm-15.9-.41c-.74-1.59-1.83-4.06-2.8-6.74l-.14-.39h.42c.56,0,1.06-.11,1.52-.36l.3-.16,.11,.32c.57,1.74,1.3,3.67,2.16,5.76l.02,.06v.12s-.68,1.4-.68,1.4l-.49,.89-.42-.91Zm25.28-1.27c-1.8-.37-3.85-.71-6.07-1.01h-.06s-.1-.07-.1-.07l-.87-1.29-.53-.87,1,.09c1.76,.15,4.45,.44,7.23,.94l.41,.08-.21,.36c-.27,.46-.43,.97-.45,1.5v.34s-.35-.07-.35-.07Zm-23-3.14l.69-.05c2.2-.18,4.64-.29,7.05-.31h.07s.12,.06,.12,.06l.93,1.19,.55,.82h-1.05c-2.59-.01-4.94,.08-7.17,.26l-.37,.03-.83-2Zm19.43-1.78l.19-.58c1.84-5.78,2.08-10.01,.61-10.78-.16-.08-.36-.13-.59-.13-1.32,0-4.59,1.39-11.73,10.67l-.04,.05-.1,.06-1.55,.11-1.02,.02,.58-.82C27.67,9.46,34.72,.13,39.56,.13c.62,0,1.19,.15,1.7,.44,2.59,1.49,2.49,6.55-.28,14.22l-.14,.38-2.31-.3Zm-14.07-5.39c-3.54-3.88-6.57-6.11-8.3-6.11-.28,0-.53,.06-.72,.19-.31,.2-1.01,.95-.76,3.6l.03,.32h-.33c-.63,0-1.17,.13-1.66,.41l-.28,.18-.24-.27v-.04c-.68-3.86-.12-6.33,1.65-7.36,.48-.28,1.03-.42,1.62-.42,2.61,0,6.26,2.69,10.55,7.77l.26,.32-1.42,1.85-.41-.46Z"/>
      <circle class="cls-1" cx="45.67" cy="19.67" r="2.84"/>
      <path class="cls-1" d="M17.17,10.72c0-1.57-1.27-2.84-2.84-2.84s-2.84,1.27-2.84,2.84,1.27,2.84,2.84,2.84,2.84-1.27,2.84-2.84Z"/>
      <path class="cls-1" d="M25.09,42.33c0-1.57-1.27-2.84-2.84-2.84s-2.84,1.27-2.84,2.84,1.27,2.84,2.84,2.84,2.84-1.27,2.84-2.84Z"/>
      <path class="cls-1" d="M31.78,24.24c0-2.41-1.95-4.36-4.36-4.36s-4.36,1.95-4.36,4.36,1.95,4.36,4.36,4.36,4.36-1.95,4.36-4.36Z"/>
    </g>
  </g>
</svg>