<svg xmlns="http://www.w3.org/2000/svg" viewBox="0 0 65.05 59.38"><g id="Layer_2" data-name="Layer 2"><g id="updateprofile"><path d="M32.53,15.6H62.92a5.26,5.26,0,0,1,.89,0,1.27,1.27,0,0,1,1.13,1.05,4.44,4.44,0,0,1,.06.89q0,18.51,0,37a6,6,0,0,1-.43,2.34,4,4,0,0,1-3.63,2.42H4.68A4.24,4.24,0,0,1,.22,56.23a5.75,5.75,0,0,1-.16-1.5q0-18.6,0-37.22c0-1.48.43-1.9,2-1.91Zm0,38.12H47.05c.76,0,1-.24,1-.89a6.21,6.21,0,0,0-3.38-5.48A31.08,31.08,0,0,0,41.22,46c-1.11-.42-2.26-.77-3.35-1.24a1.7,1.7,0,0,1-1.11-1.86c.06-.57,0-1.16,0-1.72a3.91,3.91,0,0,1,.4-1.13c.47-.94,1-1.88,1.45-2.79a2.11,2.11,0,0,1,.64-.79,3.45,3.45,0,0,0,1.22-4.73,1,1,0,0,1,0-.74,10,10,0,0,0,.48-3.8,6,6,0,0,0-4.53-5.79,1.18,1.18,0,0,1-1-.82,1,1,0,0,0-1.08-.76,16.2,16.2,0,0,0-5.08.79,7.22,7.22,0,0,0-4.65,4.29,9.43,9.43,0,0,0,0,6,1.1,1.1,0,0,1-.07.8c-.76,1.26-.69,3.24.51,4.1A5.38,5.38,0,0,1,27,38.58a2.21,2.21,0,0,0,.48.83,3.35,3.35,0,0,1,.85,3,.57.57,0,0,0,0,.13A2.17,2.17,0,0,1,26.66,45c-.42.17-.85.34-1.28.48-1.33.44-2.69.8-4,1.32a6.38,6.38,0,0,0-4.35,5.68c-.09,1,.09,1.2,1.06,1.2Z" fill="#ca9e43" stroke="#ca9e43" stroke-miterlimit="10" stroke-width="0.01"/><path d="M65,12.74H.09c0-.25,0-.49,0-.73V4.7A4.28,4.28,0,0,1,4.68.06c4,0,8,0,11.92,0a3.35,3.35,0,0,1,2.88,1.33c.82,1.08,1.58,2.2,2.31,3.34a2,2,0,0,0,1.91,1q18.3-.06,36.6,0c3,0,4.69,1.69,4.7,4.69Z" fill="#ca9e43" stroke="#ca9e43" stroke-miterlimit="10" stroke-width="0.1"/><path d="M32.51,53.72H18.11c-1,0-1.15-.23-1.06-1.2a6.38,6.38,0,0,1,4.35-5.68c1.29-.52,2.65-.88,4-1.32.43-.14.86-.31,1.28-.48a2.17,2.17,0,0,0,1.62-2.53.57.57,0,0,1,0-.13,3.35,3.35,0,0,0-.85-3,2.21,2.21,0,0,1-.48-.83A5.38,5.38,0,0,0,25,35.83c-1.2-.86-1.27-2.84-.51-4.1a1.1,1.1,0,0,0,.07-.8,9.43,9.43,0,0,1,0-6,7.22,7.22,0,0,1,4.65-4.29,16.2,16.2,0,0,1,5.08-.79,1,1,0,0,1,1.08.76,1.18,1.18,0,0,0,1,.82,6,6,0,0,1,4.53,5.79,10,10,0,0,1-.48,3.8,1,1,0,0,0,0,.74,3.45,3.45,0,0,1-1.22,4.73,2.11,2.11,0,0,0-.64.79c-.5.91-1,1.85-1.45,2.79a3.91,3.91,0,0,0-.4,1.13c-.07.56,0,1.15,0,1.72a1.7,1.7,0,0,0,1.11,1.86c1.09.47,2.24.82,3.35,1.24a31.08,31.08,0,0,1,3.44,1.35A6.21,6.21,0,0,1,48,52.82c.05.65-.23.89-1,.89Z" fill="#fff"/></g></g></svg>