<svg xmlns="http://www.w3.org/2000/svg" viewBox="0 0 60.23 67.42"><g id="Layer_2" data-name="Layer 2"><g id="workertransfer"><path d="M9.21,9.89C12.73,5.52,16.53,1.82,22,.42a10.33,10.33,0,0,1,8.9,1.4,10.54,10.54,0,0,0,3.41,1.64A8,8,0,0,1,40.12,11c.09,3.66.09,7.32,0,11a11.35,11.35,0,0,1-.82,3.45A2.49,2.49,0,0,1,38,26.77c-1.73.61-1.12,2.27-2.29,4.55a7.1,7.1,0,0,1-1.92,2.13c-1.4,1.13-1.17,2.79.36,3.37a47.13,47.13,0,0,1,10.56,5.32c.9.65,1.72,1.42,2.62,2.16a8.69,8.69,0,0,1,1.41,4.87,8.48,8.48,0,0,1-.87,3.58q-5.67.09-11.37.15-16.85.18-33.47.2C1.78,48,3,44.79,7.18,41.92a48.94,48.94,0,0,1,10.41-5.14,1.78,1.78,0,0,0,.6-3,12.23,12.23,0,0,1-3.49-6.19c-.06-.26-.48-.51-.78-.65a3.28,3.28,0,0,1-1.85-2.21,18.92,18.92,0,0,1-.61-6c0-1.57,0-3.14,0-4.71S11.22,10.75,9.21,9.89ZM34.46,23.12c0-.35-.06-.56-.06-.77,0-2.13,0-4.26-.06-6.39a4.87,4.87,0,0,0-2-3.86c-.24-.19-.76-.36-1-.24-2.6,1.66-5.5,2-8.47,2.11a5.68,5.68,0,0,0-5.75,6.09v3.09l-3-1.63c.32,1.16.35,2.13.84,2.72.32.39,1.3.24,2.09.34a9.64,9.64,0,0,0,2.29,6.57c1.7,2,4.14,2.39,6.34,3.32,5.07-1.41,8.85-4,8.66-9.73.91-.28,1.82-.29,2.23-.75s.41-1.43.65-2.44ZM45.81,50.21c.24-1.71.18-3.22-1.15-4.41-3.36-3-7.46-4.66-11.22-6.18a14.54,14.54,0,0,1-1.84,2.73c-2.63,2.42-5.76,2.7-9,1.6-2.06-.7-3.79-1.93-4.1-4.47A43.07,43.07,0,0,0,7.65,45.15a4.56,4.56,0,0,0-1.81,5.06ZM14.43,18a7.91,7.91,0,0,1,4.84-5.94,16.3,16.3,0,0,1,4.54-1c2.22-.2,4.51-.38,6.25-1.79,1.4-1.13,2.36-.66,3.51.09a8.1,8.1,0,0,1,3.21,4.19l.33,1a19.72,19.72,0,0,0,.15-3.05c0-2.86-1.44-4.79-4.23-5.41a5.87,5.87,0,0,1-3.6-1.76,4.61,4.61,0,0,0-2.27-1.1,9.25,9.25,0,0,0-6.13.5,21,21,0,0,0-7.12,5.11,1.25,1.25,0,0,0-.27,1.66,5.12,5.12,0,0,1,.51,1.93C14.29,14.28,14.35,16.15,14.43,18Zm7.09,17.74c0,1.41-.07,2.42,0,3.41a2.14,2.14,0,0,0,.63,1.31,6.08,6.08,0,0,0,7.16.09c.3-.25.68-.61.7-.94.09-1.16,0-2.34,0-3.85A7.07,7.07,0,0,1,21.52,35.74Z" fill="#ca9e43"/><path d="M50.2,58.83V53.1l10,7.17-10,7.15v-5.7H26.74a5.49,5.49,0,0,1-1.22-.07,1.41,1.41,0,0,1,.14-2.79,6.69,6.69,0,0,1,1,0H50.2Z" fill="#ca9e43"/><path d="M15.74,60.28a1.33,1.33,0,0,1-1.43,1.4,1.41,1.41,0,0,1,0-2.82A1.33,1.33,0,0,1,15.74,60.28Z" fill="#ca9e43"/><path d="M0,60.15a1.39,1.39,0,0,1,1.43-1.3,1.45,1.45,0,0,1,1.43,1.42A1.51,1.51,0,0,1,1.42,61.7,1.5,1.5,0,0,1,0,60.15Z" fill="#ca9e43"/><path d="M7.17,60.13a1.38,1.38,0,0,1,1.45-1.28A1.44,1.44,0,0,1,10,60.29,1.5,1.5,0,0,1,8.57,61.7,1.51,1.51,0,0,1,7.17,60.13Z" fill="#ca9e43"/><path d="M20.19,58.84a1.39,1.39,0,0,1,1.3,1.44,1.47,1.47,0,0,1-1.43,1.43,1.52,1.52,0,0,1-1.42-1.46A1.5,1.5,0,0,1,20.19,58.84Z" fill="#ca9e43"/><path d="M34.46,23.12l2.86-1.57c-.24,1-.21,1.93-.65,2.44s-1.32.47-2.23.75c.19,5.75-3.59,8.32-8.66,9.73-2.2-.93-4.64-1.37-6.34-3.32a9.64,9.64,0,0,1-2.29-6.57c-.79-.1-1.77.05-2.09-.34-.49-.59-.52-1.56-.84-2.72l3,1.63V20.06A5.68,5.68,0,0,1,23,14c3-.16,5.87-.45,8.47-2.11.2-.12.72.05,1,.24a4.87,4.87,0,0,1,2,3.86c.06,2.13,0,4.26.06,6.39C34.4,22.56,34.43,22.77,34.46,23.12ZM21.61,21.59A1.47,1.47,0,0,0,20.08,23a1.42,1.42,0,0,0,1.43,1.41,1.42,1.42,0,0,0,.1-2.84Zm8.47,0c-.84.13-1.38.56-1.37,1.46a1.35,1.35,0,0,0,1.41,1.41A1.4,1.4,0,0,0,31.52,23,1.43,1.43,0,0,0,30.08,21.57Z" fill="#fff"/><path d="M45.81,50.21h-40a4.56,4.56,0,0,1,1.81-5.06,43.07,43.07,0,0,1,10.86-5.67c.31,2.54,2,3.77,4.1,4.47,3.23,1.1,6.36.82,9-1.6a14.54,14.54,0,0,0,1.84-2.73c3.76,1.52,7.86,3.15,11.22,6.18C46,47,46.05,48.5,45.81,50.21Z" fill="#fff"/><path d="M14.43,18c-.08-1.85-.14-3.72-.28-5.57a5.12,5.12,0,0,0-.51-1.93,1.25,1.25,0,0,1,.27-1.66A21,21,0,0,1,21,3.73a9.25,9.25,0,0,1,6.13-.5,4.61,4.61,0,0,1,2.27,1.1A5.87,5.87,0,0,0,33,6.09c2.79.62,4.18,2.55,4.23,5.41a19.72,19.72,0,0,1-.15,3.05l-.33-1a8.1,8.1,0,0,0-3.21-4.19c-1.15-.75-2.11-1.22-3.51-.09-1.74,1.41-4,1.59-6.25,1.79a16.3,16.3,0,0,0-4.54,1A7.91,7.91,0,0,0,14.43,18Z" fill="#fff"/><path d="M21.52,35.74a7.07,7.07,0,0,0,8.56,0c0,1.51.05,2.69,0,3.85,0,.33-.4.69-.7.94a6.08,6.08,0,0,1-7.16-.09,2.14,2.14,0,0,1-.63-1.31C21.45,38.16,21.52,37.15,21.52,35.74Z" fill="#fff"/><path d="M21.61,21.59a1.42,1.42,0,0,1-.1,2.84A1.42,1.42,0,0,1,20.08,23,1.47,1.47,0,0,1,21.61,21.59Z" fill="#ca9e43"/><path d="M30.08,21.57A1.43,1.43,0,0,1,31.52,23a1.4,1.4,0,0,1-1.4,1.44A1.35,1.35,0,0,1,28.71,23C28.7,22.13,29.24,21.7,30.08,21.57Z" fill="#ca9e43"/></g></g></svg>