<svg xmlns="http://www.w3.org/2000/svg" viewBox="0 0 61.9 61.93"><g id="Layer_2" data-name="Layer 2"><g id="workerresign"><path d="M19,43.8v3.8c0,3.35,0,6.71,0,10.07a4,4,0,0,1-4.26,4.25c-1.82,0-3.64,0-5.46,0A4,4,0,0,1,5,57.63q0-6.48,0-13v-.88l-.95-.21a5,5,0,0,1-4-4.82c0-5-.07-10,0-15a7.92,7.92,0,0,1,8-7.8c2.65,0,5.31,0,8,0a7.9,7.9,0,0,1,8,7.76c.11,5,.06,10,0,15.06a4.89,4.89,0,0,1-3.76,4.7C19.88,43.61,19.5,43.69,19,43.8ZM17,50c0-2.62,0-5.25,0-7.88a1.43,1.43,0,0,1,.66-1.07c.26-.13.75.21,1.14.34.21.07.43.24.62.21A2.93,2.93,0,0,0,22,38.7c0-5,0-10,0-15A5.85,5.85,0,0,0,16.24,18Q12,17.92,7.82,18a5.82,5.82,0,0,0-5.75,5.57c-.08,5.07,0,10.15,0,15.22a2.9,2.9,0,0,0,2.6,2.85c.18,0,.39-.21.6-.29s.76-.41,1-.31.55.54.72.88a2,2,0,0,1,0,.77q0,7.43,0,14.83c0,1.69.72,2.42,2.42,2.42s3.48,0,5.23,0A2.06,2.06,0,0,0,17,57.59Z" fill="#ca9e43"/><path d="M54.84,7H29l-.22-1.94H56.84V61.88H27.79a12.26,12.26,0,0,1,.77-1.63,1,1,0,0,1,.78-.28c2.86,0,5.73,0,8.59,0H54.84Z" fill="#ca9e43"/><path d="M12,0a7,7,0,0,1,7,7A7,7,0,0,1,5,7,7,7,0,0,1,12,0Zm0,12a5,5,0,1,0-5-5A5,5,0,0,0,12,12Z" fill="#ca9e43"/><path d="M50.92,34.48c0,1.06,0,2.12,0,3.19,0,.85-.37,1.29-1,1.28s-1-.44-1-1.31V31.26c0-.85.37-1.3,1-1.29s1,.46,1,1.31C50.93,32.35,50.92,33.41,50.92,34.48Z" fill="#ca9e43"/><path d="M61,56a1,1,0,0,1-.07,2,1,1,0,0,1-1-1A1,1,0,0,1,61,56Z" fill="#ca9e43"/><path d="M60.87,16a1,1,0,0,1,1,1,.94.94,0,0,1-.94,1,1,1,0,0,1-1-.95A1,1,0,0,1,60.87,16Z" fill="#ca9e43"/><path d="M61.89,25a1,1,0,0,1-1,1,1,1,0,0,1-1-1,1,1,0,0,1,1-1A1,1,0,0,1,61.89,25Z" fill="#ca9e43"/><path d="M59.91,37a1,1,0,0,1,1-1,.92.92,0,0,1,1,1,.93.93,0,0,1-1,1A1,1,0,0,1,59.91,37Z" fill="#ca9e43"/><path d="M61.89,45a1,1,0,0,1-2-.1,1,1,0,0,1,1-1A1,1,0,0,1,61.89,45Z" fill="#ca9e43"/><path d="M61.89,5a1,1,0,0,1-2,0,1,1,0,1,1,2,0Z" fill="#ca9e43"/><path d="M33,0a.92.92,0,0,1,.93,1,1,1,0,0,1-2-.06A.93.93,0,0,1,33,0Z" fill="#ca9e43"/><path d="M44.87,2a.93.93,0,0,1-.94-1,1,1,0,0,1,2,0A.94.94,0,0,1,44.87,2Z" fill="#ca9e43"/><path d="M53.92.94c-.08.63-.38,1-1,1a.9.9,0,0,1-1-1,.9.9,0,0,1,1-1A1,1,0,0,1,53.92.94Z" fill="#ca9e43"/><path d="M61.9,9c-.08.65-.43,1-1,1a.9.9,0,0,1-.94-1,.9.9,0,0,1,1-.94A1,1,0,0,1,61.9,9Z" fill="#ca9e43"/><path d="M61.89,29a1,1,0,0,1-1,1,.9.9,0,0,1-1-1,.88.88,0,0,1,1-1A.93.93,0,0,1,61.89,29Z" fill="#ca9e43"/><path d="M60.93,14a1,1,0,0,1-1-1,1,1,0,1,1,2,0A.94.94,0,0,1,60.93,14Z" fill="#ca9e43"/><path d="M59.91,48.88c.13-.6.46-1,1.08-.9a1,1,0,0,1-.17,2A1,1,0,0,1,59.91,48.88Z" fill="#ca9e43"/><path d="M61.89,53a.93.93,0,0,1-1,1,1,1,0,0,1,0-2A1,1,0,0,1,61.89,53Z" fill="#ca9e43"/><path d="M61.89,33a.93.93,0,0,1-1,1,.9.9,0,0,1-1-1,.89.89,0,0,1,1-1A.93.93,0,0,1,61.89,33Z" fill="#ca9e43"/><path d="M37.91,1c-.06.59-.34,1-1,1A.89.89,0,0,1,36,1a.89.89,0,0,1,.95-1C37.52,0,37.83.37,37.91,1Z" fill="#ca9e43"/><path d="M41,2a.93.93,0,0,1-1-.95,1,1,0,0,1,2-.06A.92.92,0,0,1,41,2Z" fill="#ca9e43"/><path d="M57.9,1c0,.59-.34,1-1,1a.88.88,0,0,1-1-.94.89.89,0,0,1,.94-1C57.5,0,57.81.37,57.9,1Z" fill="#ca9e43"/><path d="M61.89,1a.93.93,0,0,1-1,.93.9.9,0,0,1-.94-1,.89.89,0,0,1,1-.93A.94.94,0,0,1,61.89,1Z" fill="#ca9e43"/><path d="M60.87,40c.61,0,1,.33,1,1a1,1,0,0,1-2,0A.92.92,0,0,1,60.87,40Z" fill="#ca9e43"/><path d="M60.9,20a.93.93,0,0,1,1,1,1,1,0,0,1-2,.05A.93.93,0,0,1,60.9,20Z" fill="#ca9e43"/><path d="M61.9,60.94c-.09.64-.41,1-1,1A1,1,0,1,1,60.93,60C61.56,60,61.83,60.39,61.9,60.94Z" fill="#ca9e43"/><path d="M29.9,1a.91.91,0,0,1-1,.92A.88.88,0,0,1,28,1,.88.88,0,0,1,29,0C29.58,0,29.87.42,29.9,1Z" fill="#ca9e43"/><path d="M49.89,1a.91.91,0,0,1-1,1A.87.87,0,0,1,48,1a.88.88,0,0,1,1-1A.92.92,0,0,1,49.89,1Z" fill="#ca9e43"/><path d="M17,50v7.57a2.06,2.06,0,0,1-2.34,2.35c-1.75,0-3.49,0-5.23,0S7,59.21,7,57.52q0-7.41,0-14.83a2,2,0,0,0,0-.77c-.17-.34-.41-.77-.72-.88s-.69.17-1,.31-.42.31-.6.29a2.9,2.9,0,0,1-2.6-2.85c0-5.07-.07-10.15,0-15.22A5.82,5.82,0,0,1,7.82,18q4.2-.08,8.42,0A5.85,5.85,0,0,1,22,23.73c.06,5,0,10,0,15a2.93,2.93,0,0,1-2.54,2.92c-.19,0-.41-.14-.62-.21-.39-.13-.88-.47-1.14-.34a1.43,1.43,0,0,0-.66,1.07C17,44.77,17,47.4,17,50ZM6,35a1,1,0,0,0,1-1,.91.91,0,0,0-1-1,.93.93,0,0,0-1,1A1,1,0,0,0,6,35Zm11.93,0A1,1,0,0,0,19,34a1,1,0,0,0-1-1,.92.92,0,0,0-1,.94A.94.94,0,0,0,18,34.94ZM7,38A1,1,0,0,0,6,37a1,1,0,0,0-1,1,.94.94,0,0,0,1,1A1,1,0,0,0,7,38ZM18,37a1,1,0,0,0-1,1,.93.93,0,0,0,1,1,.94.94,0,0,0,1-1A1,1,0,0,0,18,37ZM6.07,25a.94.94,0,0,0-1,1,.9.9,0,0,0,1,1A.89.89,0,0,0,7,26,.92.92,0,0,0,6.07,25Zm12,2a.93.93,0,0,0,1-1,1,1,0,0,0-2,0C17.05,26.57,17.42,26.89,18,26.94Zm-12,4a1,1,0,0,0,.94-1,1,1,0,0,0-1-1,1,1,0,0,0,.08,2Zm11.86,0a1,1,0,1,0,.1-2,1,1,0,0,0-1,1A1,1,0,0,0,17.94,31Z" fill="#fff"/><path d="M12,12a5,5,0,1,1,5-5A5,5,0,0,1,12,12Z" fill="#fff"/><path d="M6,35a1,1,0,0,1-1-1,.93.93,0,0,1,1-1,.91.91,0,0,1,1,1A1,1,0,0,1,6,35Z" fill="#ca9e43"/><path d="M18,34.94a.94.94,0,0,1-.9-1,.92.92,0,0,1,1-.94,1,1,0,0,1,1,1A1,1,0,0,1,18,34.94Z" fill="#ca9e43"/><path d="M7,38a1,1,0,0,1-1,.91.94.94,0,0,1-1-1,1,1,0,0,1,1-1A1,1,0,0,1,7,38Z" fill="#ca9e43"/><path d="M18,37a1,1,0,0,1,1,1,.94.94,0,0,1-1,1,.93.93,0,0,1-1-1A1,1,0,0,1,18,37Z" fill="#ca9e43"/><path d="M6.07,25A.92.92,0,0,1,7,26a.89.89,0,0,1-1,.95.9.9,0,0,1-1-1A.94.94,0,0,1,6.07,25Z" fill="#ca9e43"/><path d="M18,26.94c-.62-.05-1-.37-1-1a1,1,0,0,1,2,0A.93.93,0,0,1,18,26.94Z" fill="#ca9e43"/><path d="M6.08,31A1,1,0,0,1,6,29a1,1,0,0,1,1,1A1,1,0,0,1,6.08,31Z" fill="#ca9e43"/><path d="M17.94,31a1,1,0,0,1-.9-1,1,1,0,0,1,1-1,1,1,0,1,1-.1,2Z" fill="#ca9e43"/></g></g></svg>