<?xml version="1.0" encoding="UTF-8"?>
<svg id="Layer_2" data-name="Layer 2" xmlns="http://www.w3.org/2000/svg" viewBox="0 0 89.46 83.29">
  <defs>
    <style>
      .cls-1 {
        fill: #ca9e43;
      }
    </style>
  </defs>
  <g id="insidents-newicon">
    <g id="ALERT">
      <path class="cls-1" d="M44.73,23.61c-11.85,0-21.47,10.29-21.47,22.94,0,.85,.69,1.54,1.54,1.54s1.54-.69,1.54-1.54c0-10.95,8.25-19.85,18.39-19.85,.85,0,1.54-.69,1.54-1.54s-.69-1.54-1.54-1.54Z"/>
      <path class="cls-1" d="M59.71,69.96c-.07-.07-.15-.14-.25-.19-.72-.46-1.67-.25-2.13,.46-.27,.42-.32,.94-.14,1.4,1,2.22,4.15,.09,2.51-1.68Z"/>
      <path class="cls-1" d="M76.3,69.52h-3.45v-31.88c-3.32-29.66-55.97-29.54-56.24,4.63v27.25c-1.25,.19-4.75-.71-4.97,1.3l-1.67,10.7c-.13,.84,.45,1.63,1.29,1.76,.08,.01,.17,.02,.25,.02H77.95c.85,0,1.55-.67,1.56-1.52,0-.08,0-.17-.02-.25l-1.67-10.7c-.12-.75-.77-1.3-1.53-1.3Zm-62.99,10.69l1.19-7.6H53.98c.85,0,1.54-.69,1.54-1.54s-.69-1.54-1.54-1.54H19.7v-27.25c.19-14.79,12.56-24.45,26.93-23.14,12.46,0,23.14,10.18,23.14,18.51v31.77h-6.52c-.85,0-1.54,.69-1.54,1.54s.69,1.54,1.54,1.54h7.88c.12,.05,.26,.05,.39,0h3.47l1.17,7.71H13.31Z"/>
      <path class="cls-1" d="M44.73,12c.85,0,1.54-.69,1.54-1.54V1.54c0-.85-.69-1.54-1.54-1.54s-1.54,.69-1.54,1.54V10.46c0,.85,.69,1.54,1.54,1.54Z"/>
      <path class="cls-1" d="M57.59,14.78c.8,.3,1.69-.1,1.99-.89,0,0,0,0,0,0l3.19-8.22c.41-.75,.13-1.68-.62-2.09-.75-.41-1.68-.13-2.09,.62-.07,.14-.13,.29-.16,.44l-3.19,8.22c-.26,.77,.12,1.62,.88,1.93Z"/>
      <path class="cls-1" d="M69.5,23.14c.43,0,.84-.18,1.13-.49l5.89-6.28c.58-.62,.55-1.6-.07-2.18-.62-.58-1.6-.55-2.18,.07l-5.89,6.28c-.59,.62-.56,1.59,.05,2.18,.29,.28,.67,.43,1.07,.43Z"/>
      <path class="cls-1" d="M75.58,34.4c.34,.78,1.24,1.14,2.03,.81,0,0,0,0,0,0l7.71-3.36c.78-.34,1.14-1.25,.8-2.04s-1.25-1.14-2.04-.8l-7.71,3.36c-.78,.34-1.14,1.24-.81,2.03,0,0,0,0,0,0Z"/>
      <path class="cls-1" d="M87.92,46.73h-8.31c-.85,0-1.54,.69-1.54,1.54s.69,1.54,1.54,1.54h8.31c.85,0,1.54-.69,1.54-1.54s-.69-1.54-1.54-1.54Z"/>
      <path class="cls-1" d="M29.88,13.88c.35,.78,1.26,1.13,2.04,.78,.73-.32,1.09-1.15,.83-1.91l-3.19-8.13c-.37-.77-1.29-1.1-2.06-.73-.69,.33-1.04,1.11-.81,1.84l3.19,8.14Z"/>
      <path class="cls-1" d="M18.83,22.58c.58,.62,1.56,.65,2.18,.07s.65-1.56,.07-2.18l-5.89-6.28c-.6-.6-1.58-.61-2.18,0,0,0,0,0,0,0-.6,.6-.6,1.57,0,2.17l5.83,6.22Z"/>
      <path class="cls-1" d="M4.1,31.83l7.71,3.36c.78,.34,1.7-.02,2.04-.8,.34-.78-.02-1.7-.8-2.04l-7.71-3.36c-.78-.34-1.7,.02-2.04,.8s.02,1.7,.8,2.04h0Z"/>
      <path class="cls-1" d="M11.38,48.18c0-.85-.69-1.54-1.54-1.54l-8.3,.09c-.85,0-1.54,.69-1.54,1.54s.69,1.54,1.54,1.54H9.84c.85,0,1.54-.69,1.55-1.54,0-.03,0-.06,0-.1Z"/>
    </g>
  </g>
</svg>