<?xml version="1.0" encoding="UTF-8"?>
<svg id="Layer_2" data-name="Layer 2" xmlns="http://www.w3.org/2000/svg" viewBox="0 0 99.42 95.03">
  <defs>
    <style>
      .cls-1 {
        fill: none;
        stroke: #ca9e43;
        stroke-miterlimit: 10;
        stroke-width: 3px;
      }
    </style>
  </defs>
  <g id="source-newicon">
    <g>
      <path class="cls-1" d="M62.97,45.32c0,7.32-5.93,13.25-13.26,13.25s-13.25-5.93-13.25-13.25,5.93-13.25,13.25-13.25,13.26,5.93,13.26,13.25Z"/>
      <path class="cls-1" d="M1.5,45.29l29.62,.96c-.01-.31-.02-.61-.02-.93,0-8.22,5.33-15.19,12.72-17.65L28.64,1.95C12.58,9.77,1.52,26.24,1.5,45.29Z"/>
      <path class="cls-1" d="M49.71,93.53c9.29,0,17.97-2.63,25.33-7.18l-14.31-26.02c-3.08,2.27-6.89,3.61-11.02,3.61s-7.93-1.34-11.02-3.61l-14.3,26.02c7.36,4.55,16.04,7.18,25.32,7.18Z"/>
      <path class="cls-1" d="M97.92,45.29c-.01-19.05-11.08-35.52-27.13-43.33l-15.18,25.71c7.39,2.47,12.72,9.44,12.72,17.65,0,.31-.01,.62-.03,.93l29.62-.96Z"/>
    </g>
  </g>
</svg>