<?xml version="1.0" encoding="UTF-8"?>
<svg id="Layer_2" data-name="Layer 2" xmlns="http://www.w3.org/2000/svg" viewBox="0 0 70.08 57.88">
  <defs>
    <style>
      .cls-1 {
        stroke-width: 3px;
      }

      .cls-1, .cls-2 {
        fill: none;
        stroke: #ca9e43;
        stroke-miterlimit: 10;
      }
    </style>
  </defs>
  <g id="waste-newicon">
    <g>
      <path class="cls-2" d="M37.83,34.88c0,1.81-1.47,3.28-3.28,3.28s-3.28-1.47-3.28-3.28,1.47-3.28,3.28-3.28,3.28,1.47,3.28,3.28Z"/>
      <path class="cls-2" d="M22.61,34.87l7.33,.24c0-.08,0-.15,0-.23,0-2.03,1.32-3.76,3.15-4.37l-3.76-6.37c-3.98,1.94-6.71,6.01-6.72,10.73Z"/>
      <path class="cls-2" d="M34.55,46.81c2.3,0,4.45-.65,6.27-1.78l-3.54-6.44c-.76,.56-1.71,.89-2.73,.89s-1.96-.33-2.73-.89l-3.54,6.44c1.82,1.13,3.97,1.78,6.27,1.78Z"/>
      <path class="cls-2" d="M46.48,34.87c0-4.72-2.74-8.79-6.72-10.73l-3.76,6.37c1.83,.61,3.15,2.34,3.15,4.37,0,.08,0,.15,0,.23l7.33-.24Z"/>
    </g>
    <path class="cls-1" d="M67.03,56.38H2.97c-1.14,0-1.84-1.24-1.26-2.22C12,36.85,22.29,19.55,32.58,2.24c.58-.97,1.98-1,2.59-.04l33.16,51.79c.66,1.03-.08,2.39-1.31,2.39Z"/>
  </g>
</svg>