<svg xmlns="http://www.w3.org/2000/svg" viewBox="0 0 53.55 53.55"><g id="Layer_2" data-name="Layer 2"><g id="WorkersExposures"><path d="M25.72,22c0-2.33-2.94-3.17-5.27-3.17s-4.22,1.06-4.22,4.22a4.22,4.22,0,0,0,4.22,4.22C22.78,27.3,25.72,24.36,25.72,22Zm7.39-3.17c-2.33,0-5.28.84-5.28,3.17s3,5.27,5.28,5.27a4.23,4.23,0,0,0,4.22-4.22C37.33,19.92,35.43,18.86,33.11,18.86ZM26.77,31.52a3.17,3.17,0,1,0,3.17,3.16A3.17,3.17,0,0,0,26.77,31.52Zm-1.31,5a1.06,1.06,0,1,1,1.05-1.05A1.05,1.05,0,0,1,25.46,36.53Zm.26-3.16a1.06,1.06,0,1,1,1.05,1.05A1.05,1.05,0,0,1,25.72,33.37Zm2.37,3.16a1.06,1.06,0,1,1,1.06-1.05A1,1,0,0,1,28.09,36.53ZM26.77.12A26.66,26.66,0,1,0,53.43,26.78,26.66,26.66,0,0,0,26.77.12Zm17.76,36-5.81,8.8a1.06,1.06,0,0,1-1.46.3l-4.41-2.91a1.06,1.06,0,0,1-.29-1.47L33.72,39l-1.1-.73A8.52,8.52,0,0,1,26.77,41a8.49,8.49,0,0,1-5.83-2.72L19.83,39,21,40.79a1.07,1.07,0,0,1-.3,1.47l-4.4,2.91a1.06,1.06,0,0,1-1.46-.3L9,36.07a1,1,0,0,1,.3-1.46l4.39-2.91a1.06,1.06,0,0,1,1.46.29l1.17,1.76.92-.6a29.52,29.52,0,0,1-2.68-8h-1a1.06,1.06,0,0,1-1.06-1.05V19.92a1.06,1.06,0,0,1,1.06-1.06h.59c.5-5.81,4-9.33,9.43-10.28V7.79a1.05,1.05,0,0,1,1.06-1.06h4.22a1.05,1.05,0,0,1,1.05,1.06v.79c5.47.95,8.93,4.47,9.43,10.28H40A1.05,1.05,0,0,1,41,19.92v4.22A1.05,1.05,0,0,1,40,25.19H39a29.52,29.52,0,0,1-2.68,8l.92.6L38.38,32a1.06,1.06,0,0,1,1.46-.29l4.4,2.91A1,1,0,0,1,44.53,36.07Z" fill="#fff" stroke="#ca9e43" stroke-miterlimit="10" stroke-width="0.25"/></g></g></svg>