<?xml version="1.0" encoding="UTF-8"?>
<svg id="Layer_2" data-name="Layer 2" xmlns="http://www.w3.org/2000/svg" viewBox="0 0 62.05 61.93">
  <defs>
    <style>
      .cls-1, .cls-2 {
        stroke: #ca9e43;
        stroke-miterlimit: 10;
        stroke-width: 3px;
      }

      .cls-1, .cls-3 {
        fill: #ca9e43;
      }

      .cls-4 {
        fill: #fff;
      }

      .cls-2 {
        fill: none;
      }
    </style>
  </defs>
  <g id="workerpractise">
    <g>
      <path class="cls-3" d="M19.04,43.8c0,1.3,0,2.55,0,3.8,0,3.36,0,6.71,0,10.07,0,2.58-1.67,4.24-4.25,4.26-1.82,.01-3.64,.01-5.46,0-2.63-.02-4.29-1.67-4.29-4.3,0-4.32,0-8.64,0-12.95,0-.28,0-.57,0-.88-.35-.08-.65-.14-.95-.21C1.72,43.06,.06,41.16,.04,38.76c-.04-4.99-.08-9.99,.01-14.98,.08-4.41,3.59-7.76,8.01-7.81,2.65-.02,5.31-.03,7.96,0,4.38,.05,7.88,3.38,7.97,7.76,.1,5.02,.06,10.04,.01,15.06-.02,2.29-1.54,4.1-3.76,4.7-.38,.1-.76,.19-1.22,.3Zm-2.01,6.22c0-2.63-.03-5.25,.03-7.88,0-.38,.33-.92,.66-1.07,.27-.13,.75,.21,1.14,.34,.21,.07,.44,.24,.63,.21,1.51-.27,2.53-1.41,2.53-2.91,.02-4.99,.04-9.99-.01-14.98-.04-3.13-2.63-5.68-5.76-5.73-2.81-.05-5.62-.04-8.43,0-3.07,.05-5.69,2.53-5.74,5.58-.09,5.07-.05,10.14-.02,15.21,0,1.48,1.14,2.67,2.61,2.85,.18,.02,.39-.21,.6-.29,.34-.13,.76-.41,1.03-.31,.31,.12,.55,.54,.72,.89,.1,.21,.03,.51,.03,.77,0,4.94,0,9.88,0,14.82,0,1.69,.73,2.42,2.42,2.43,1.74,0,3.49,.01,5.23,0,1.6-.01,2.34-.77,2.34-2.35,0-2.52,0-5.04,0-7.57Z"/>
      <path class="cls-3" d="M12.01,0c3.85-.01,7.02,3.14,7.02,6.98,0,3.81-3.13,6.96-6.95,6.98-3.87,.02-7.03-3.09-7.06-6.94C5,3.18,8.15,.01,12.01,0Zm0,11.96c2.79,.01,5.02-2.2,5.02-4.97,0-2.77-2.25-5.02-5.01-5-2.74,.01-4.96,2.22-4.98,4.95-.02,2.78,2.18,5.01,4.97,5.02Z"/>
      <path class="cls-4" d="M17.03,50.02c0,2.52,0,5.04,0,7.57,0,1.59-.75,2.34-2.34,2.35-1.74,.01-3.49,.01-5.23,0-1.7,0-2.42-.74-2.42-2.43,0-4.94,0-9.88,0-14.82,0-.26,.08-.56-.03-.77-.17-.34-.41-.77-.72-.89-.27-.1-.68,.18-1.03,.31-.21,.08-.42,.31-.6,.29-1.47-.19-2.6-1.37-2.61-2.85-.03-5.07-.07-10.14,.02-15.21,.05-3.05,2.68-5.53,5.74-5.58,2.81-.04,5.62-.05,8.43,0,3.13,.05,5.73,2.59,5.76,5.73,.06,4.99,.03,9.99,.01,14.98,0,1.51-1.02,2.65-2.53,2.91-.19,.03-.42-.14-.63-.21-.39-.13-.87-.46-1.14-.34-.32,.16-.65,.69-.66,1.07-.06,2.63-.03,5.25-.03,7.88Zm-11.01-15.07c.53,0,1.02-.45,1-.98-.03-.6-.36-.97-.97-.98-.62-.01-.95,.37-1,.96-.04,.52,.45,1,.98,1Zm11.93,0c.57,.02,1.05-.42,1.08-.95,.02-.53-.42-1.01-.96-1.01-.62,0-.99,.33-1.02,.94-.03,.62,.35,.94,.9,1.02Zm-10.92,3.08c0-.61-.47-1.07-1-1.06-.53,0-1.02,.48-.98,1,.05,.59,.38,.97,1,.96,.62,0,.92-.39,.98-.91Zm10.98-1.06c-.54,.01-1.01,.48-.97,1.01,.04,.6,.39,.96,1.01,.95,.62,0,.94-.4,.97-.99,.03-.52-.48-.98-1.01-.97ZM6.07,24.98c-.64,.03-1.01,.37-1.02,.96,0,.59,.34,.98,.97,.99,.62,0,.99-.35,1-.95,.01-.61-.36-.94-.94-1Zm11.97,1.96c.6-.05,.97-.38,.97-.98,0-.59-.36-.97-.98-.97-.62,0-.98,.36-.98,.97,0,.61,.37,.93,.99,.98Zm-11.96,4.02c.58-.1,.94-.42,.94-1.04,0-.53-.5-.98-1.03-.96-.52,.02-1.01,.52-.96,1.04,.06,.6,.42,.92,1.04,.97Zm11.87,0c.6,0,1.08-.46,1.09-.98,0-.51-.48-1.01-.99-1.01-.52,0-1.02,.47-1,.99,.02,.61,.39,.93,.9,1Z"/>
      <path class="cls-4" d="M12.01,11.96c-2.79-.01-4.99-2.24-4.97-5.02,.02-2.73,2.24-4.94,4.98-4.95,2.76-.01,5.01,2.24,5.01,5,0,2.77-2.24,4.99-5.02,4.97Z"/>
      <path class="cls-3" d="M6.02,34.95c-.53,0-1.02-.48-.98-1,.05-.59,.38-.97,1-.96,.62,.01,.95,.38,.97,.98,.02,.53-.47,.99-1,.98Z"/>
      <path class="cls-3" d="M17.95,34.94c-.55-.09-.93-.41-.9-1.02,.03-.6,.4-.94,1.02-.94,.54,0,.98,.48,.96,1.01-.02,.53-.51,.97-1.08,.95Z"/>
      <path class="cls-3" d="M7.03,38.02c-.07,.51-.36,.9-.98,.91-.62,0-.95-.37-1-.96-.04-.52,.45-1,.98-1,.53,0,1,.45,1,1.06Z"/>
      <path class="cls-3" d="M18.01,36.96c.53-.01,1.04,.45,1.01,.97-.03,.59-.35,.98-.97,.99-.62,0-.96-.35-1.01-.95-.04-.53,.43-1,.97-1.01Z"/>
      <path class="cls-3" d="M6.07,24.98c.59,.06,.96,.39,.94,1-.01,.6-.38,.96-1,.95-.62,0-.98-.39-.97-.99,0-.59,.38-.94,1.02-.96Z"/>
      <path class="cls-3" d="M18.04,26.94c-.62-.05-.99-.37-.99-.98,0-.61,.37-.96,.98-.97,.62,0,.98,.38,.98,.97,0,.6-.37,.94-.97,.98Z"/>
      <path class="cls-3" d="M6.08,30.96c-.61-.05-.97-.37-1.04-.97-.05-.51,.43-1.01,.96-1.04,.52-.02,1.03,.44,1.03,.96,0,.61-.36,.94-.94,1.04Z"/>
      <path class="cls-3" d="M17.94,30.95c-.52-.08-.88-.39-.9-1-.02-.52,.48-1,1-.99,.52,0,1,.5,.99,1.01,0,.52-.49,.99-1.09,.98Z"/>
    </g>
    <g>
      <path class="cls-3" d="M43.43,40.81c-.25,0-.51,0-.76,0-.07,0-.17-.06-.2-.12-.23-.57-.45-1.15-.7-1.8,.17-.16,.39-.35,.59-.56,.25-.26,.25-.52,0-.78-.69-.7-1.39-1.39-2.09-2.09-.26-.26-.53-.26-.79,0-.2,.2-.39,.42-.55,.58-.64-.25-1.22-.47-1.79-.7-.06-.02-.12-.13-.12-.2-.01-.25,0-.49,0-.74,0-.35-.19-.53-.54-.53-.99,0-1.99,0-2.98,0-.35,0-.53,.19-.54,.53,0,.25,0,.49,0,.74,0,.07-.06,.17-.12,.2-.57,.23-1.15,.45-1.79,.7-.15-.16-.33-.36-.53-.56-.29-.29-.54-.29-.83,0-.69,.68-1.37,1.37-2.05,2.05-.27,.28-.28,.54,0,.81,.2,.2,.42,.39,.58,.54-.25,.65-.47,1.23-.7,1.8-.02,.06-.13,.12-.2,.12-.25,.01-.49,0-.74,0-.35,0-.53,.19-.53,.54,0,.99,0,1.99,0,2.98,0,.34,.19,.53,.53,.54,.25,0,.49,0,.74,0,.07,0,.17,.06,.2,.12,.23,.57,.45,1.15,.7,1.8-.15,.14-.36,.33-.56,.52-.3,.3-.3,.55,0,.85,.68,.68,1.36,1.36,2.04,2.04,.29,.28,.55,.29,.83,0,.2-.2,.39-.42,.54-.57,.64,.25,1.21,.47,1.77,.7,.07,.03,.13,.13,.14,.21,.02,.25,0,.51,0,.76,0,.32,.19,.51,.51,.51,1.01,0,2.02,0,3.03,0,.32,0,.5-.19,.51-.51,0-.25,0-.51,0-.76,0-.07,.07-.18,.14-.21,.57-.23,1.14-.45,1.78-.7,.15,.16,.35,.38,.56,.59,.26,.26,.53,.26,.79,0,.69-.69,1.38-1.38,2.07-2.07,.27-.27,.27-.54,0-.81-.2-.2-.41-.39-.58-.55,.25-.63,.47-1.2,.7-1.77,.03-.07,.13-.13,.2-.14,.25-.02,.51,0,.76,0,.31,0,.5-.2,.51-.51,0-1.01,0-2.02,0-3.03,0-.32-.19-.5-.51-.51Zm-12.15,2.13c-.08-2.01,1.54-3.72,3.61-3.8,2.01-.08,3.71,1.54,3.8,3.61,.09,2-1.54,3.72-3.61,3.8-2.01,.08-3.72-1.54-3.8-3.61Z"/>
      <path class="cls-3" d="M43.43,40.81c-.25,0-.51,0-.76,0-.07,0-.17-.06-.2-.12-.23-.57-.45-1.15-.7-1.8,.17-.16,.39-.35,.59-.56,.25-.26,.25-.52,0-.78-.69-.7-1.39-1.39-2.09-2.09-.26-.26-.53-.26-.79,0-.2,.2-.39,.42-.55,.58-.64-.25-1.22-.47-1.79-.7-.06-.02-.12-.13-.12-.2-.01-.25,0-.49,0-.74,0-.35-.19-.53-.54-.53-.99,0-1.99,0-2.98,0-.35,0-.53,.19-.54,.53,0,.25,0,.49,0,.74,0,.07-.06,.17-.12,.2-.57,.23-1.15,.45-1.79,.7-.15-.16-.33-.36-.53-.56-.29-.29-.54-.29-.83,0-.69,.68-1.37,1.37-2.05,2.05-.27,.28-.28,.54,0,.81,.2,.2,.42,.39,.58,.54-.25,.65-.47,1.23-.7,1.8-.02,.06-.13,.12-.2,.12-.25,.01-.49,0-.74,0-.35,0-.53,.19-.53,.54,0,.99,0,1.99,0,2.98,0,.34,.19,.53,.53,.54,.25,0,.49,0,.74,0,.07,0,.17,.06,.2,.12,.23,.57,.45,1.15,.7,1.8-.15,.14-.36,.33-.56,.52-.3,.3-.3,.55,0,.85,.68,.68,1.36,1.36,2.04,2.04,.29,.28,.55,.29,.83,0,.2-.2,.39-.42,.54-.57,.64,.25,1.21,.47,1.77,.7,.07,.03,.13,.13,.14,.21,.02,.25,0,.51,0,.76,0,.32,.19,.51,.51,.51,1.01,0,2.02,0,3.03,0,.32,0,.5-.19,.51-.51,0-.25,0-.51,0-.76,0-.07,.07-.18,.14-.21,.57-.23,1.14-.45,1.78-.7,.15,.16,.35,.38,.56,.59,.26,.26,.53,.26,.79,0,.69-.69,1.38-1.38,2.07-2.07,.27-.27,.27-.54,0-.81-.2-.2-.41-.39-.58-.55,.25-.63,.47-1.2,.7-1.77,.03-.07,.13-.13,.2-.14,.25-.02,.51,0,.76,0,.31,0,.5-.2,.51-.51,0-1.01,0-2.02,0-3.03,0-.32-.19-.5-.51-.51Zm-12.15,2.13c-.08-2.01,1.54-3.72,3.61-3.8,2.01-.08,3.71,1.54,3.8,3.61,.09,2-1.54,3.72-3.61,3.8-2.01,.08-3.72-1.54-3.8-3.61Z"/>
      <path class="cls-3" d="M34.98,37.69c-2.85,0-5.16,2.31-5.16,5.16s2.31,5.16,5.16,5.16,5.16-2.31,5.16-5.16-2.31-5.16-5.16-5.16Zm.1,8.86c-2.01,.08-3.72-1.54-3.8-3.61-.08-2.01,1.54-3.72,3.61-3.8,2.01-.08,3.71,1.54,3.8,3.61,.09,2-1.54,3.72-3.61,3.8Z"/>
    </g>
    <g>
      <path class="cls-3" d="M61.53,31.54c-.25,0-.51,0-.76,0-.07,0-.17-.06-.2-.12-.23-.57-.45-1.15-.7-1.8,.17-.16,.39-.35,.59-.56,.25-.26,.25-.52,0-.78-.69-.7-1.39-1.39-2.09-2.09-.26-.26-.53-.26-.79,0-.2,.2-.39,.42-.55,.58-.64-.25-1.22-.47-1.79-.7-.06-.02-.12-.13-.12-.2-.01-.25,0-.49,0-.74,0-.35-.19-.53-.54-.53-.99,0-1.99,0-2.98,0-.35,0-.53,.19-.54,.53,0,.25,0,.49,0,.74,0,.07-.06,.17-.12,.2-.57,.23-1.15,.45-1.79,.7-.15-.16-.33-.36-.53-.56-.29-.29-.54-.29-.83,0-.69,.68-1.37,1.37-2.05,2.05-.27,.28-.28,.54,0,.81,.2,.2,.42,.39,.58,.54-.25,.65-.47,1.23-.7,1.8-.02,.06-.13,.12-.2,.12-.25,.01-.49,0-.74,0-.35,0-.53,.19-.53,.54,0,.99,0,1.99,0,2.98,0,.34,.19,.53,.53,.54,.25,0,.49,0,.74,0,.07,0,.17,.06,.2,.12,.23,.57,.45,1.15,.7,1.8-.15,.14-.36,.33-.56,.52-.3,.3-.3,.55,0,.85,.68,.68,1.36,1.36,2.04,2.04,.29,.28,.55,.29,.83,0,.2-.2,.39-.42,.54-.57,.64,.25,1.21,.47,1.77,.7,.07,.03,.13,.13,.14,.21,.02,.25,0,.51,0,.76,0,.32,.19,.51,.51,.51,1.01,0,2.02,0,3.03,0,.32,0,.5-.19,.51-.51,0-.25,0-.51,0-.76,0-.07,.07-.18,.14-.21,.57-.23,1.14-.45,1.78-.7,.15,.16,.35,.38,.56,.59,.26,.26,.53,.26,.79,0,.69-.69,1.38-1.38,2.07-2.07,.27-.27,.27-.54,0-.81-.2-.2-.41-.39-.58-.55,.25-.63,.47-1.2,.7-1.77,.03-.07,.13-.13,.2-.14,.25-.02,.51,0,.76,0,.31,0,.5-.2,.51-.51,0-1.01,0-2.02,0-3.03,0-.32-.19-.5-.51-.51Zm-12.15,2.13c-.08-2.01,1.54-3.72,3.61-3.8,2.01-.08,3.71,1.54,3.8,3.61,.09,2-1.54,3.72-3.61,3.8-2.01,.08-3.72-1.54-3.8-3.61Z"/>
      <path class="cls-3" d="M61.53,31.54c-.25,0-.51,0-.76,0-.07,0-.17-.06-.2-.12-.23-.57-.45-1.15-.7-1.8,.17-.16,.39-.35,.59-.56,.25-.26,.25-.52,0-.78-.69-.7-1.39-1.39-2.09-2.09-.26-.26-.53-.26-.79,0-.2,.2-.39,.42-.55,.58-.64-.25-1.22-.47-1.79-.7-.06-.02-.12-.13-.12-.2-.01-.25,0-.49,0-.74,0-.35-.19-.53-.54-.53-.99,0-1.99,0-2.98,0-.35,0-.53,.19-.54,.53,0,.25,0,.49,0,.74,0,.07-.06,.17-.12,.2-.57,.23-1.15,.45-1.79,.7-.15-.16-.33-.36-.53-.56-.29-.29-.54-.29-.83,0-.69,.68-1.37,1.37-2.05,2.05-.27,.28-.28,.54,0,.81,.2,.2,.42,.39,.58,.54-.25,.65-.47,1.23-.7,1.8-.02,.06-.13,.12-.2,.12-.25,.01-.49,0-.74,0-.35,0-.53,.19-.53,.54,0,.99,0,1.99,0,2.98,0,.34,.19,.53,.53,.54,.25,0,.49,0,.74,0,.07,0,.17,.06,.2,.12,.23,.57,.45,1.15,.7,1.8-.15,.14-.36,.33-.56,.52-.3,.3-.3,.55,0,.85,.68,.68,1.36,1.36,2.04,2.04,.29,.28,.55,.29,.83,0,.2-.2,.39-.42,.54-.57,.64,.25,1.21,.47,1.77,.7,.07,.03,.13,.13,.14,.21,.02,.25,0,.51,0,.76,0,.32,.19,.51,.51,.51,1.01,0,2.02,0,3.03,0,.32,0,.5-.19,.51-.51,0-.25,0-.51,0-.76,0-.07,.07-.18,.14-.21,.57-.23,1.14-.45,1.78-.7,.15,.16,.35,.38,.56,.59,.26,.26,.53,.26,.79,0,.69-.69,1.38-1.38,2.07-2.07,.27-.27,.27-.54,0-.81-.2-.2-.41-.39-.58-.55,.25-.63,.47-1.2,.7-1.77,.03-.07,.13-.13,.2-.14,.25-.02,.51,0,.76,0,.31,0,.5-.2,.51-.51,0-1.01,0-2.02,0-3.03,0-.32-.19-.5-.51-.51Zm-12.15,2.13c-.08-2.01,1.54-3.72,3.61-3.8,2.01-.08,3.71,1.54,3.8,3.61,.09,2-1.54,3.72-3.61,3.8-2.01,.08-3.72-1.54-3.8-3.61Z"/>
      <path class="cls-3" d="M53.08,28.42c-2.85,0-5.16,2.31-5.16,5.16s2.31,5.16,5.16,5.16,5.16-2.31,5.16-5.16-2.31-5.16-5.16-5.16Zm.1,8.86c-2.01,.08-3.72-1.54-3.8-3.61-.08-2.01,1.54-3.72,3.61-3.8,2.01-.08,3.71,1.54,3.8,3.61,.09,2-1.54,3.72-3.61,3.8Z"/>
    </g>
    <g>
      <path class="cls-3" d="M43.43,21.1c-.25,0-.51,0-.76,0-.07,0-.17-.06-.2-.12-.23-.57-.45-1.15-.7-1.8,.17-.16,.39-.35,.59-.56,.25-.26,.25-.52,0-.78-.69-.7-1.39-1.39-2.09-2.09-.26-.26-.53-.26-.79,0-.2,.2-.39,.42-.55,.58-.64-.25-1.22-.47-1.79-.7-.06-.02-.12-.13-.12-.2-.01-.25,0-.49,0-.74,0-.35-.19-.53-.54-.53-.99,0-1.99,0-2.98,0-.35,0-.53,.19-.54,.53,0,.25,0,.49,0,.74,0,.07-.06,.17-.12,.2-.57,.23-1.15,.45-1.79,.7-.15-.16-.33-.36-.53-.56-.29-.29-.54-.29-.83,0-.69,.68-1.37,1.37-2.05,2.05-.27,.28-.28,.54,0,.81,.2,.2,.42,.39,.58,.54-.25,.65-.47,1.23-.7,1.8-.02,.06-.13,.12-.2,.12-.25,.01-.49,0-.74,0-.35,0-.53,.19-.53,.54,0,.99,0,1.99,0,2.98,0,.34,.19,.53,.53,.54,.25,0,.49,0,.74,0,.07,0,.17,.06,.2,.12,.23,.57,.45,1.15,.7,1.8-.15,.14-.36,.33-.56,.52-.3,.3-.3,.55,0,.85,.68,.68,1.36,1.36,2.04,2.04,.29,.28,.55,.29,.83,0,.2-.2,.39-.42,.54-.57,.64,.25,1.21,.47,1.77,.7,.07,.03,.13,.13,.14,.21,.02,.25,0,.51,0,.76,0,.32,.19,.51,.51,.51,1.01,0,2.02,0,3.03,0,.32,0,.5-.19,.51-.51,0-.25,0-.51,0-.76,0-.07,.07-.18,.14-.21,.57-.23,1.14-.45,1.78-.7,.15,.16,.35,.38,.56,.59,.26,.26,.53,.26,.79,0,.69-.69,1.38-1.38,2.07-2.07,.27-.27,.27-.54,0-.81-.2-.2-.41-.39-.58-.55,.25-.63,.47-1.2,.7-1.77,.03-.07,.13-.13,.2-.14,.25-.02,.51,0,.76,0,.31,0,.5-.2,.51-.51,0-1.01,0-2.02,0-3.03,0-.32-.19-.5-.51-.51Zm-12.15,2.13c-.08-2.01,1.54-3.72,3.61-3.8,2.01-.08,3.71,1.54,3.8,3.61,.09,2-1.54,3.72-3.61,3.8-2.01,.08-3.72-1.54-3.8-3.61Z"/>
      <path class="cls-3" d="M43.43,21.1c-.25,0-.51,0-.76,0-.07,0-.17-.06-.2-.12-.23-.57-.45-1.15-.7-1.8,.17-.16,.39-.35,.59-.56,.25-.26,.25-.52,0-.78-.69-.7-1.39-1.39-2.09-2.09-.26-.26-.53-.26-.79,0-.2,.2-.39,.42-.55,.58-.64-.25-1.22-.47-1.79-.7-.06-.02-.12-.13-.12-.2-.01-.25,0-.49,0-.74,0-.35-.19-.53-.54-.53-.99,0-1.99,0-2.98,0-.35,0-.53,.19-.54,.53,0,.25,0,.49,0,.74,0,.07-.06,.17-.12,.2-.57,.23-1.15,.45-1.79,.7-.15-.16-.33-.36-.53-.56-.29-.29-.54-.29-.83,0-.69,.68-1.37,1.37-2.05,2.05-.27,.28-.28,.54,0,.81,.2,.2,.42,.39,.58,.54-.25,.65-.47,1.23-.7,1.8-.02,.06-.13,.12-.2,.12-.25,.01-.49,0-.74,0-.35,0-.53,.19-.53,.54,0,.99,0,1.99,0,2.98,0,.34,.19,.53,.53,.54,.25,0,.49,0,.74,0,.07,0,.17,.06,.2,.12,.23,.57,.45,1.15,.7,1.8-.15,.14-.36,.33-.56,.52-.3,.3-.3,.55,0,.85,.68,.68,1.36,1.36,2.04,2.04,.29,.28,.55,.29,.83,0,.2-.2,.39-.42,.54-.57,.64,.25,1.21,.47,1.77,.7,.07,.03,.13,.13,.14,.21,.02,.25,0,.51,0,.76,0,.32,.19,.51,.51,.51,1.01,0,2.02,0,3.03,0,.32,0,.5-.19,.51-.51,0-.25,0-.51,0-.76,0-.07,.07-.18,.14-.21,.57-.23,1.14-.45,1.78-.7,.15,.16,.35,.38,.56,.59,.26,.26,.53,.26,.79,0,.69-.69,1.38-1.38,2.07-2.07,.27-.27,.27-.54,0-.81-.2-.2-.41-.39-.58-.55,.25-.63,.47-1.2,.7-1.77,.03-.07,.13-.13,.2-.14,.25-.02,.51,0,.76,0,.31,0,.5-.2,.51-.51,0-1.01,0-2.02,0-3.03,0-.32-.19-.5-.51-.51Zm-12.15,2.13c-.08-2.01,1.54-3.72,3.61-3.8,2.01-.08,3.71,1.54,3.8,3.61,.09,2-1.54,3.72-3.61,3.8-2.01,.08-3.72-1.54-3.8-3.61Z"/>
      <path class="cls-3" d="M34.98,17.97c-2.85,0-5.16,2.31-5.16,5.16s2.31,5.16,5.16,5.16,5.16-2.31,5.16-5.16-2.31-5.16-5.16-5.16Zm.1,8.86c-2.01,.08-3.72-1.54-3.8-3.61-.08-2.01,1.54-3.72,3.61-3.8,2.01-.08,3.71,1.54,3.8,3.61,.09,2-1.54,3.72-3.61,3.8Z"/>
    </g>
    <g>
      <line class="cls-1" x1="47.26" y1="17.47" x2="58.48" y2="17.47"/>
      <line class="cls-1" x1="58.91" y1="17.85" x2="54.21" y2="13.65"/>
      <line class="cls-1" x1="54.4" y1="21.73" x2="59.31" y2="16.19"/>
    </g>
    <g>
      <line class="cls-2" x1="58.24" y1="49.68" x2="47.02" y2="49.68"/>
      <line class="cls-2" x1="46.04" y1="48.85" x2="51.29" y2="53.5"/>
      <line class="cls-2" x1="51.09" y1="45.42" x2="46.89" y2="50.12"/>
    </g>
  </g>
</svg>