<?xml version="1.0" encoding="UTF-8"?>
<svg id="Layer_2" data-name="Layer 2" xmlns="http://www.w3.org/2000/svg" viewBox="0 0 94.78 112.71">
  <defs>
    <style>
      .cls-1 {
        fill: #fff;
        stroke: #c49a6c;
        stroke-miterlimit: 10;
        stroke-width: 3px;
      }
    </style>
  </defs>
  <g id="worker-newicon">
    <g>
      <rect class="cls-1" x="37.22" y="58.84" width="20.33" height="17.29"/>
      <path class="cls-1" d="M30.44,28.92c.23,7.16,.25,14.36,.7,21.5,.11,1.78-.27,3.7,.57,5.37,.56,1.12,1.67,2.1,2.49,3.05,2.74,3.14,5.72,6.12,8.78,8.94,0,0,4.12,2.41,9.9,0,1.56-1.72,3.14-3.44,4.7-5.17,1.19-1.31,2.39-2.62,3.57-3.94,1.86-2.08,2.94-3.24,2.91-6.02-.02-2.12,.24-4.25,.28-6.38,.1-4.73,.46-9.46,.61-14.19,.03-1.03,.21-2.14,.13-3.16,0-.01-1.38-16.27-18.69-15.66,0,0-12.64,.9-15.94,15.66Z"/>
      <path class="cls-1" d="M63.95,48.16l.72,.64c.82,1.1,2.12-1.54,2.12-1.54,.82-2.38,1.96-4.53,1.95-7.16,0-2.55-1.86-4.27-3.84-2.4l-.96,10.47Z"/>
      <path class="cls-1" d="M31.68,48.16l-.72,.64c-.82,1.1-2.12-1.54-2.12-1.54-.82-2.38-1.96-4.53-1.95-7.16,0-2.55,1.86-4.27,3.84-2.4l.96,10.47Z"/>
      <path class="cls-1" d="M79.72,82.29l-23.06-9.49h-18.54l-23.06,9.49s-12.25,6.78-13.47,28.92H93.19c-1.22-22.14-13.47-28.92-13.47-28.92Z"/>
      <path class="cls-1" d="M20.73,79.96l5.06-2.08s7.09,16.67,11.44,33.33h-6.78s-4.11-19.95-9.71-31.25Z"/>
      <path class="cls-1" d="M74.14,79.96l-5.06-2.08s-7.09,16.67-11.44,33.33h6.78s4.11-19.95,9.71-31.25Z"/>
      <g>
        <path class="cls-1" d="M69.95,31.21c0,1.95-9.64,5.17-21.54,5.17s-21.54-3.22-21.54-5.17,9.64-3.52,21.54-3.52,21.54,1.58,21.54,3.52Z"/>
        <path class="cls-1" d="M68.6,30.25c.3-1.65,.08-.18,.08-1.93,0-13.29-9.15-24.06-20.44-24.06S27.78,15.03,27.78,28.32c0,1.75-.21,.47,.09,2.12,0,0,23.09,6.59,40.72-.19Z"/>
        <path class="cls-1" d="M44.14,31.84s.05-18.87-6.47-24.12c0,0-.64-1.16,.3-2.01,0,0,7.93-8.37,19.53-1.47,0,0,2.22,.81,.61,3.14,0,0-5.3,9.45-5.37,24.48h-8.6Z"/>
      </g>
    </g>
  </g>
</svg>