<?xml version="1.0" encoding="UTF-8"?>
<svg id="Layer_2" data-name="Layer 2" xmlns="http://www.w3.org/2000/svg" viewBox="0 0 102.93 87.15">
  <defs>
    <style>
      .cls-1 {
        fill: #109ed9;
      }

      .cls-2 {
        fill: #2c2c6d;
      }

      .cls-3 {
        fill: #c3bebc;
      }

      .cls-4 {
        fill: #ca9e43;
      }
    </style>
  </defs>
  <g id="amanintegration">
    <path class="cls-3" d="M25.37,33.7c.1,0,.21,0,.31,0v.31c-.45,0-.92,0-1.38,0v-.31c.35,0,.71-.01,1.07-.01Zm1.7,.03c.46,.01,.93,.03,1.38,.06l-.02,.31c-.45-.02-.92-.04-1.38-.06v-.31Zm-4.15,.03v.31c-.45,.02-.91,.05-1.36,.08l-.02-.31c.45-.03,.92-.06,1.38-.08Zm6.92,.12c.87,.07,1.38,.14,1.38,.14l-.04,.3s-.51-.07-1.37-.14l.03-.31Zm-9.69,.08l.03,.31c-.46,.05-.92,.1-1.37,.16l-.04-.3c.45-.06,.91-.11,1.38-.16Zm-2.75,.36l.05,.3c-.46,.08-.91,.16-1.35,.25l-.06-.3c.44-.09,.9-.17,1.36-.25Zm-2.72,.55l.07,.3c-.45,.11-.9,.23-1.33,.35l-.08-.29c.44-.13,.89-.24,1.34-.35Zm-2.67,.77l.1,.29c-.44,.15-.87,.31-1.29,.48l-.11-.28c.42-.17,.86-.33,1.3-.48Zm-2.58,1.04l.13,.28c-.42,.2-.83,.41-1.22,.62l-.15-.27c.4-.22,.81-.43,1.24-.63Zm-2.43,1.35l.17,.26c-.39,.25-.76,.52-1.12,.79l-.19-.24c.36-.28,.74-.55,1.14-.8Zm-2.2,1.7l.21,.23c-.34,.31-.66,.63-.96,.97l-.23-.21c.31-.34,.64-.67,.98-.99Zm-1.87,2.06l.25,.18c-.27,.36-.52,.74-.76,1.13l-.26-.16c.24-.4,.5-.79,.77-1.16Zm-1.43,2.39l.28,.13c-.19,.41-.37,.83-.52,1.26l-.29-.1c.16-.44,.34-.87,.53-1.29Zm-.94,2.61l.3,.08c-.11,.43-.21,.88-.29,1.33l-.3-.05c.08-.46,.18-.92,.29-1.36Zm-.48,2.73l.31,.03c-.04,.44-.07,.9-.08,1.37h-.31c.01-.48,.04-.94,.08-1.39Zm.23,2.77c.02,.45,.05,.91,.09,1.37l-.31,.03c-.04-.47-.07-.93-.09-1.39H.31Zm.25,2.72c.06,.44,.14,.9,.22,1.36l-.3,.06c-.09-.46-.16-.92-.22-1.37l.3-.04Zm.5,2.7c.04,.17,.08,.33,.12,.5,.07,.28,.14,.56,.22,.83l-.29,.09c-.08-.27-.16-.56-.22-.84-.04-.17-.08-.34-.12-.5l.3-.07Zm.77,2.62c.16,.43,.35,.85,.54,1.25l-.28,.14c-.2-.41-.39-.84-.56-1.27l.29-.11Zm94.26,1.89l.28,.13c-.19,.42-.39,.84-.59,1.25l-.27-.14c.2-.4,.4-.82,.59-1.24Zm-93.05,.55c.24,.39,.5,.76,.77,1.12l-.24,.19c-.28-.37-.54-.75-.79-1.14l.26-.16Zm91.83,1.92l.27,.15c-.22,.41-.45,.82-.68,1.21l-.26-.16c.23-.39,.45-.79,.67-1.2Zm-90.18,.24c.31,.33,.63,.64,.98,.95l-.2,.23c-.35-.31-.68-.63-1-.97l.22-.21Zm2.04,1.8c.36,.26,.74,.52,1.14,.76l-.16,.26c-.4-.24-.79-.5-1.16-.77l.18-.25Zm86.75,.33l.26,.17c-.25,.39-.51,.78-.78,1.15l-.25-.18c.26-.37,.52-.75,.77-1.14Zm-84.42,1.09c.4,.2,.81,.4,1.24,.58l-.12,.28c-.43-.19-.86-.39-1.26-.59l.14-.27Zm2.51,1.09c.42,.15,.86,.3,1.3,.44l-.09,.29c-.45-.14-.89-.29-1.32-.44l.11-.29Zm80.32,.06l.24,.19c-.29,.37-.58,.73-.88,1.07l-.23-.2c.29-.34,.59-.7,.87-1.06Zm-77.7,.76c.43,.11,.88,.22,1.34,.32l-.07,.3c-.46-.1-.91-.21-1.35-.33l.08-.3Zm2.68,.6c.44,.08,.89,.16,1.36,.24l-.05,.3c-.46-.08-.92-.16-1.36-.24l.06-.3Zm2.72,.44c.44,.06,.9,.12,1.37,.17l-.04,.3c-.47-.06-.93-.11-1.37-.18l.04-.3Zm70.5,.27l.22,.21c-.32,.33-.66,.66-.99,.97l-.21-.23c.33-.31,.66-.63,.98-.96Zm-67.76,.06c.44,.04,.9,.09,1.37,.13l-.03,.31c-.47-.04-.93-.08-1.38-.13l.03-.31Zm2.75,.24c.44,.03,.9,.07,1.38,.1l-.02,.31c-.48-.03-.94-.06-1.38-.1l.02-.31Zm2.75,.18c.46,.03,.92,.05,1.38,.08l-.02,.31c-.46-.03-.92-.05-1.38-.08l.02-.31Zm2.75,.15c.44,.02,.88,.04,1.31,.07h.07s-.02,.31-.02,.31h-.07c-.44-.03-.88-.05-1.31-.07l.02-.31Zm2.76,.14c.46,.02,.92,.05,1.38,.07l-.02,.31c-.46-.02-.92-.05-1.38-.07l.02-.31Zm2.76,.15c.49,.03,.94,.06,1.38,.09l-.02,.31c-.44-.03-.89-.06-1.38-.09l.02-.31Zm2.76,.18c.47,.04,.94,.07,1.38,.11l-.03,.31c-.44-.04-.9-.08-1.38-.11l.02-.31Zm2.76,.24c.47,.05,.93,.1,1.38,.15l-.04,.3c-.44-.05-.9-.1-1.37-.15l.03-.31Zm2.75,.32c.47,.06,.93,.13,1.37,.2l-.05,.3c-.44-.07-.9-.14-1.36-.2l.04-.3Zm43.7,.19l.19,.24c-.36,.29-.73,.58-1.1,.85l-.18-.25c.37-.26,.73-.55,1.09-.83Zm-40.97,.25c.46,.09,.92,.18,1.36,.28l-.07,.3c-.44-.1-.89-.19-1.35-.27l.06-.3Zm2.71,.6c.2,.05,.4,.11,.6,.16l.74,.2-.08,.3-.74-.2c-.19-.05-.39-.11-.59-.16l.08-.3Zm2.66,.73c.44,.12,.89,.24,1.33,.36l-.08,.3c-.45-.12-.89-.24-1.33-.36l.08-.3Zm33.38,.03l.16,.26c-.39,.25-.79,.48-1.2,.7l-.15-.27c.4-.22,.8-.45,1.18-.69Zm-30.71,.69c.46,.12,.91,.24,1.34,.35l-.08,.3c-.43-.11-.88-.23-1.34-.35l.08-.3Zm28.3,.61l.13,.28c-.42,.19-.85,.37-1.28,.54l-.11-.29c.43-.16,.85-.34,1.26-.53Zm-25.63,.07c.46,.11,.91,.22,1.34,.32l-.07,.3c-.43-.1-.89-.21-1.34-.32l.07-.3Zm2.69,.63c.46,.1,.91,.2,1.35,.29l-.06,.3c-.44-.09-.89-.19-1.35-.29l.07-.3Zm20.39,.29l.09,.29c-.44,.14-.88,.27-1.34,.38l-.08-.3c.44-.11,.89-.24,1.32-.38Zm-17.69,.25c.46,.09,.91,.17,1.36,.24l-.05,.3c-.44-.07-.9-.15-1.36-.24l.06-.3Zm15.03,.42l.06,.3c-.45,.09-.91,.17-1.37,.23l-.04-.3c.46-.07,.91-.14,1.35-.23Zm-12.32,.03c.46,.07,.92,.13,1.36,.18l-.04,.3c-.45-.05-.91-.11-1.37-.18l.04-.3Zm2.73,.32c.46,.04,.92,.08,1.37,.1l-.02,.31c-.45-.03-.92-.06-1.38-.11l.03-.31Zm6.86,.04l.03,.31c-.45,.04-.92,.08-1.38,.1l-.02-.31c.46-.02,.92-.06,1.37-.1Zm-4.12,.13c.35,0,.69,.01,1.03,.01,.11,0,.23,0,.34,0v.31c-.11,0-.23,0-.34,0-.34,0-.69,0-1.04-.01v-.31Z"/>
    <path class="cls-3" d="M79.76,56.75c-.09,0-.18,0-.26,0v-.36c.38,0,.78,0,1.17-.01v.36c-.3,0-.6,.01-.91,.01Zm-1.44-.03c-.39-.02-.79-.04-1.17-.07v-.36c.4,.03,.79,.05,1.18,.07v.36Zm3.51-.03v-.36c.38-.02,.77-.06,1.15-.09l.02,.36c-.39,.04-.78,.07-1.17,.09Zm-5.86-.14c-.74-.08-1.17-.16-1.17-.16l.03-.36s.43,.08,1.16,.16l-.02,.36Zm8.21-.09l-.03-.36c.39-.05,.78-.12,1.16-.19l.03,.36c-.38,.07-.77,.13-1.17,.19Zm2.33-.43l-.04-.36c.39-.09,.77-.19,1.15-.29l.05,.35c-.38,.11-.77,.2-1.16,.29Zm2.3-.65l-.06-.35c.38-.13,.76-.27,1.12-.41l.07,.35c-.37,.15-.75,.29-1.14,.42Zm2.26-.91l-.08-.34c.37-.18,.74-.37,1.09-.56l.1,.34c-.36,.2-.73,.39-1.1,.57Zm2.19-1.22l-.11-.33c.36-.23,.7-.48,1.04-.74l.13,.32c-.34,.26-.69,.51-1.05,.75Zm2.06-1.59l-.14-.3c.33-.3,.65-.61,.95-.93l.16,.29c-.31,.33-.63,.65-.96,.95Zm1.86-2.01l-.18-.27c.29-.37,.56-.75,.81-1.14l.19,.24c-.26,.4-.54,.79-.83,1.17Zm1.58-2.44l-.21-.22c.23-.43,.44-.88,.64-1.34l.22,.19c-.2,.47-.42,.93-.66,1.37Zm1.21-2.82l-.23-.15c.16-.48,.31-.98,.44-1.49l.24,.12c-.13,.52-.29,1.03-.45,1.52Zm.8-3.09l-.25-.09c.1-.51,.18-1.04,.24-1.57l.26,.06c-.07,.54-.15,1.08-.25,1.6Zm.4-3.23l-.26-.03c.04-.52,.06-1.07,.07-1.61h.26c-.01,.56-.03,1.11-.07,1.65Zm-.19-3.27c-.01-.53-.04-1.07-.07-1.62l.26-.03c.04,.55,.06,1.1,.07,1.64h-.26Zm-.21-3.21c-.05-.52-.12-1.06-.19-1.6l.26-.07c.07,.54,.14,1.09,.19,1.62l-.26,.05Zm-.42-3.19c-.03-.2-.07-.39-.1-.59-.06-.33-.12-.66-.19-.98l.25-.1c.07,.32,.13,.66,.19,.99,.03,.2,.07,.4,.1,.59l-.25,.08Zm-.66-3.09c-.14-.5-.29-1-.46-1.47l.23-.16c.17,.48,.33,.99,.47,1.5l-.24,.13Zm-79.84-2.23l-.24-.15c.16-.5,.33-1,.5-1.48l.23,.16c-.17,.48-.34,.97-.5,1.47Zm78.82-.65c-.2-.45-.42-.9-.65-1.32l.21-.22c.24,.43,.46,.89,.67,1.35l-.22,.19Zm-77.79-2.26l-.23-.17c.19-.48,.38-.96,.58-1.43l.22,.18c-.19,.46-.39,.93-.57,1.41Zm76.39-.28c-.26-.39-.54-.76-.83-1.12l.17-.27c.3,.36,.58,.75,.85,1.14l-.19,.25Zm-1.73-2.12c-.3-.31-.63-.61-.96-.89l.14-.31c.34,.29,.67,.6,.98,.91l-.15,.29Zm-73.48-.39l-.22-.2c.21-.46,.43-.92,.66-1.36l.21,.21c-.22,.43-.44,.89-.65,1.34Zm71.51-1.29c-.33-.24-.69-.47-1.05-.69l.1-.33c.37,.22,.72,.46,1.06,.7l-.12,.32Zm-2.13-1.29c-.35-.18-.72-.35-1.1-.52l.08-.35c.38,.16,.76,.34,1.11,.52l-.09,.34Zm-68.04-.07l-.2-.22c.24-.43,.49-.86,.75-1.26l.2,.24c-.25,.4-.5,.82-.74,1.25Zm65.82-.9c-.36-.13-.75-.26-1.13-.38l.06-.35c.39,.12,.77,.25,1.14,.39l-.07,.35Zm-2.27-.71c-.37-.1-.76-.19-1.15-.28l.04-.36c.39,.09,.78,.18,1.16,.28l-.05,.36Zm-2.3-.52c-.37-.07-.76-.14-1.16-.21l.03-.36c.4,.07,.79,.13,1.16,.21l-.04,.36Zm-59.72-.31l-.19-.25c.27-.39,.56-.78,.84-1.15l.18,.27c-.28,.36-.56,.74-.83,1.13Zm57.4-.07c-.37-.05-.77-.1-1.16-.15l.02-.36c.4,.05,.79,.1,1.17,.15l-.03,.36Zm-2.33-.28c-.37-.04-.76-.08-1.17-.11l.02-.36c.4,.04,.8,.08,1.17,.11l-.02,.36Zm-2.33-.22c-.39-.03-.78-.06-1.16-.09v-.36c.4,.03,.79,.06,1.18,.09l-.02,.36Zm-2.33-.18c-.37-.03-.74-.05-1.11-.08h-.06s.01-.37,.01-.37h.06c.37,.03,.74,.06,1.11,.08v.36Zm-2.35-.17c-.39-.03-.78-.06-1.17-.09v-.36c.4,.03,.79,.06,1.19,.09v.36Zm-2.35-.18c-.41-.03-.79-.07-1.17-.1l.02-.36c.37,.03,.76,.07,1.17,.1l-.02,.36Zm-2.34-.22c-.4-.04-.79-.09-1.17-.13l.02-.36c.37,.04,.76,.09,1.17,.13l-.02,.36Zm-2.33-.28c-.4-.06-.79-.11-1.17-.18l.03-.36c.37,.06,.76,.12,1.16,.18l-.03,.36Zm-2.33-.38c-.4-.08-.79-.16-1.16-.24l.04-.36c.37,.08,.76,.16,1.15,.24l-.04,.36Zm-37.02-.23l-.16-.28c.3-.35,.62-.68,.93-1l.15,.29c-.31,.31-.62,.64-.92,.99Zm34.7-.29c-.39-.1-.78-.21-1.15-.33l.06-.35c.37,.11,.75,.22,1.14,.32l-.05,.36Zm-2.29-.7c-.17-.06-.34-.12-.51-.19l-.62-.24,.07-.35,.62,.24c.17,.06,.33,.13,.5,.19l-.06,.35Zm-2.26-.86c-.38-.14-.75-.29-1.13-.43l.07-.35c.38,.14,.75,.28,1.13,.43l-.07,.35Zm-28.27-.03l-.14-.31c.33-.29,.67-.57,1.02-.83l.12,.32c-.34,.26-.68,.53-1,.81Zm26.01-.81c-.39-.14-.77-.28-1.13-.41l.06-.35c.36,.13,.74,.27,1.13,.41l-.07,.35Zm-23.97-.72l-.11-.33c.35-.23,.72-.44,1.08-.64l.09,.34c-.36,.19-.72,.41-1.07,.63Zm21.71-.08c-.39-.13-.77-.26-1.14-.38l.06-.35c.37,.12,.75,.25,1.14,.38l-.06,.35Zm-2.28-.74c-.39-.12-.77-.23-1.14-.34l.05-.35c.37,.11,.76,.22,1.15,.34l-.06,.35Zm-17.27-.35l-.08-.35c.37-.16,.75-.31,1.13-.45l.06,.35c-.38,.13-.75,.28-1.12,.44Zm14.98-.3c-.39-.1-.77-.2-1.15-.28l.04-.36c.38,.09,.76,.18,1.15,.28l-.05,.36Zm-12.73-.5l-.05-.36c.38-.1,.77-.2,1.16-.27l.04,.36c-.39,.08-.77,.17-1.15,.27Zm10.43-.03c-.39-.08-.78-.15-1.16-.21l.03-.36c.38,.06,.77,.13,1.16,.21l-.04,.36Zm-2.32-.38c-.39-.05-.78-.09-1.16-.12l.02-.36c.38,.03,.78,.07,1.17,.12l-.02,.36Zm-5.81-.05l-.02-.36c.38-.05,.78-.09,1.17-.12v.36c-.38,.03-.77,.07-1.15,.12Zm3.49-.15c-.29-.01-.59-.02-.87-.02-.1,0-.19,0-.29,0v-.36c.1,0,.19,0,.29,0,.29,0,.58,0,.88,.02v.36Z"/>
    <g>
      <path class="cls-2" d="M66.48,38.72c-.95-.03-1.9,.02-2.84-.03-.26-.01-.65-.23-.74-.45-.87-2.14-1.69-4.31-2.62-6.71,.62-.58,1.44-1.31,2.21-2.09,.94-.95,.93-1.95-.01-2.9-2.59-2.61-5.18-5.2-7.79-7.79-.99-.98-1.96-.96-2.96,.03-.75,.75-1.47,1.55-2.04,2.15-2.39-.92-4.55-1.74-6.69-2.61-.22-.09-.44-.47-.45-.73-.06-.91,0-1.83-.03-2.75-.03-1.29-.71-1.98-2-1.99-3.7-.01-7.4-.01-11.1,0-1.29,0-1.97,.7-2,1.99-.02,.92,.03,1.84-.03,2.75-.02,.26-.24,.64-.46,.73-2.14,.87-4.3,1.69-6.69,2.61-.55-.59-1.24-1.36-1.97-2.09-1.07-1.08-2.03-1.09-3.09-.03-2.56,2.55-5.11,5.1-7.66,7.66-1.02,1.03-1.03,2.01,0,3.03,.75,.75,1.55,1.46,2.15,2.02-.93,2.41-1.75,4.57-2.62,6.71-.09,.22-.48,.43-.74,.45-.91,.05-1.83,0-2.75,.03-1.29,.03-1.98,.7-1.99,2-.02,3.7-.01,7.4,0,11.11,0,1.28,.71,1.98,1.99,2.01,.92,.02,1.84-.03,2.75,.03,.26,.02,.65,.22,.74,.44,.87,2.14,1.69,4.31,2.62,6.71-.57,.53-1.34,1.22-2.08,1.95-1.12,1.11-1.13,2.05-.03,3.16,2.52,2.54,5.05,5.07,7.59,7.6,1.07,1.06,2.03,1.07,3.1,0,.75-.75,1.46-1.55,2.02-2.14,2.37,.93,4.51,1.75,6.62,2.62,.24,.1,.49,.5,.51,.77,.06,.94,0,1.9,.03,2.84,.03,1.18,.73,1.88,1.91,1.89,3.76,.02,7.53,.02,11.29,0,1.18,0,1.87-.72,1.9-1.9,.03-.95-.03-1.9,.03-2.84,.02-.27,.27-.67,.52-.77,2.11-.87,4.25-1.68,6.62-2.61,.57,.61,1.3,1.43,2.08,2.2,.98,.98,1.97,.97,2.96,0,2.58-2.57,5.16-5.14,7.72-7.72,1.02-1.02,1-2-.03-3.03-.75-.76-1.55-1.47-2.15-2.04,.92-2.35,1.73-4.49,2.6-6.6,.1-.24,.49-.5,.76-.52,.94-.07,1.9,0,2.84-.04,1.17-.04,1.88-.74,1.89-1.92,.02-3.76,.02-7.53,0-11.29,0-1.18-.71-1.87-1.9-1.9Zm-45.32,7.93c-.31-7.48,5.75-13.87,13.45-14.18,7.49-.3,13.84,5.73,14.18,13.45,.32,7.47-5.74,13.86-13.45,14.18-7.48,.31-13.86-5.74-14.18-13.45Z"/>
      <path class="cls-4" d="M66.48,38.72c-.95-.03-1.9,.02-2.84-.03-.26-.01-.65-.23-.74-.45-.87-2.14-1.69-4.31-2.62-6.71,.62-.58,1.44-1.31,2.21-2.09,.94-.95,.93-1.95-.01-2.9-2.59-2.61-5.18-5.2-7.79-7.79-.99-.98-1.96-.96-2.96,.03-.75,.75-1.47,1.55-2.04,2.15-2.39-.92-4.55-1.74-6.69-2.61-.22-.09-.44-.47-.45-.73-.06-.91,0-1.83-.03-2.75-.03-1.29-.71-1.98-2-1.99-3.7-.01-7.4-.01-11.1,0-1.29,0-1.97,.7-2,1.99-.02,.92,.03,1.84-.03,2.75-.02,.26-.24,.64-.46,.73-2.14,.87-4.3,1.69-6.69,2.61-.55-.59-1.24-1.36-1.97-2.09-1.07-1.08-2.03-1.09-3.09-.03-2.56,2.55-5.11,5.1-7.66,7.66-1.02,1.03-1.03,2.01,0,3.03,.75,.75,1.55,1.46,2.15,2.02-.93,2.41-1.75,4.57-2.62,6.71-.09,.22-.48,.43-.74,.45-.91,.05-1.83,0-2.75,.03-1.29,.03-1.98,.7-1.99,2-.02,3.7-.01,7.4,0,11.11,0,1.28,.71,1.98,1.99,2.01,.92,.02,1.84-.03,2.75,.03,.26,.02,.65,.22,.74,.44,.87,2.14,1.69,4.31,2.62,6.71-.57,.53-1.34,1.22-2.08,1.95-1.12,1.11-1.13,2.05-.03,3.16,2.52,2.54,5.05,5.07,7.59,7.6,1.07,1.06,2.03,1.07,3.1,0,.75-.75,1.46-1.55,2.02-2.14,2.37,.93,4.51,1.75,6.62,2.62,.24,.1,.49,.5,.51,.77,.06,.94,0,1.9,.03,2.84,.03,1.18,.73,1.88,1.91,1.89,3.76,.02,7.53,.02,11.29,0,1.18,0,1.87-.72,1.9-1.9,.03-.95-.03-1.9,.03-2.84,.02-.27,.27-.67,.52-.77,2.11-.87,4.25-1.68,6.62-2.61,.57,.61,1.3,1.43,2.08,2.2,.98,.98,1.97,.97,2.96,0,2.58-2.57,5.16-5.14,7.72-7.72,1.02-1.02,1-2-.03-3.03-.75-.76-1.55-1.47-2.15-2.04,.92-2.35,1.73-4.49,2.6-6.6,.1-.24,.49-.5,.76-.52,.94-.07,1.9,0,2.84-.04,1.17-.04,1.88-.74,1.89-1.92,.02-3.76,.02-7.53,0-11.29,0-1.18-.71-1.87-1.9-1.9Zm-45.32,7.93c-.31-7.48,5.75-13.87,13.45-14.18,7.49-.3,13.84,5.73,14.18,13.45,.32,7.47-5.74,13.86-13.45,14.18-7.48,.31-13.86-5.74-14.18-13.45Z"/>
      <path class="cls-1" d="M34.97,27.06c-10.62,0-19.23,8.61-19.23,19.23s8.61,19.23,19.23,19.23,19.23-8.61,19.23-19.23-8.61-19.23-19.23-19.23Zm.36,33.04c-7.48,.31-13.86-5.74-14.18-13.45-.31-7.48,5.75-13.87,13.45-14.18,7.49-.3,13.84,5.73,14.18,13.45,.32,7.47-5.74,13.86-13.45,14.18Z"/>
    </g>
    <g>
      <path class="cls-2" d="M101.93,65.68c-.5-.01-.99,.01-1.49-.02-.14,0-.34-.12-.39-.23-.46-1.12-.88-2.25-1.37-3.51,.32-.3,.76-.68,1.16-1.09,.49-.5,.49-1.02,0-1.52-1.35-1.37-2.71-2.72-4.08-4.08-.52-.51-1.03-.5-1.55,.02-.4,.39-.77,.81-1.07,1.13-1.25-.48-2.38-.91-3.5-1.37-.12-.05-.23-.25-.24-.38-.03-.48,0-.96-.01-1.44-.01-.68-.37-1.04-1.05-1.04-1.94,0-3.88,0-5.82,0-.68,0-1.03,.37-1.05,1.04,0,.48,.02,.96-.01,1.44,0,.14-.12,.33-.24,.38-1.12,.45-2.25,.88-3.5,1.37-.29-.31-.65-.71-1.03-1.1-.56-.56-1.06-.57-1.62-.02-1.34,1.33-2.68,2.67-4.01,4.01-.54,.54-.54,1.05,0,1.58,.4,.39,.81,.77,1.12,1.06-.49,1.26-.92,2.39-1.37,3.52-.05,.11-.25,.23-.39,.23-.48,.03-.96,0-1.44,.01-.68,.01-1.04,.37-1.04,1.05,0,1.94,0,3.88,0,5.82,0,.67,.37,1.04,1.04,1.05,.48,.01,.96-.01,1.44,.01,.14,0,.34,.12,.39,.23,.46,1.12,.89,2.26,1.37,3.51-.3,.28-.7,.64-1.09,1.02-.59,.58-.59,1.08-.02,1.65,1.32,1.33,2.65,2.66,3.98,3.98,.56,.56,1.06,.56,1.62,0,.39-.4,.77-.81,1.06-1.12,1.24,.49,2.36,.91,3.47,1.37,.13,.05,.26,.26,.27,.4,.03,.49,0,.99,.02,1.49,.02,.62,.38,.99,1,.99,1.97,.01,3.94,.01,5.91,0,.62,0,.98-.38,1-.99,.01-.5-.02-.99,.02-1.49,0-.14,.14-.35,.27-.4,1.11-.46,2.22-.88,3.47-1.37,.3,.32,.68,.75,1.09,1.15,.52,.51,1.03,.51,1.55,0,1.35-1.34,2.7-2.69,4.04-4.05,.53-.54,.52-1.05-.02-1.59-.39-.4-.81-.77-1.12-1.07,.48-1.23,.91-2.35,1.36-3.45,.05-.13,.26-.26,.4-.27,.49-.03,.99,0,1.49-.02,.61-.02,.98-.39,.99-1,0-1.97,0-3.94,0-5.91,0-.62-.37-.98-.99-.99Zm-23.74,4.15c-.16-3.92,3.01-7.26,7.05-7.43,3.92-.16,7.25,3,7.42,7.05,.17,3.91-3.01,7.26-7.04,7.43-3.92,.16-7.26-3.01-7.42-7.05Z"/>
      <path class="cls-4" d="M101.93,65.68c-.5-.01-.99,.01-1.49-.02-.14,0-.34-.12-.39-.23-.46-1.12-.88-2.25-1.37-3.51,.32-.3,.76-.68,1.16-1.09,.49-.5,.49-1.02,0-1.52-1.35-1.37-2.71-2.72-4.08-4.08-.52-.51-1.03-.5-1.55,.02-.4,.39-.77,.81-1.07,1.13-1.25-.48-2.38-.91-3.5-1.37-.12-.05-.23-.25-.24-.38-.03-.48,0-.96-.01-1.44-.01-.68-.37-1.04-1.05-1.04-1.94,0-3.88,0-5.82,0-.68,0-1.03,.37-1.05,1.04,0,.48,.02,.96-.01,1.44,0,.14-.12,.33-.24,.38-1.12,.45-2.25,.88-3.5,1.37-.29-.31-.65-.71-1.03-1.1-.56-.56-1.06-.57-1.62-.02-1.34,1.33-2.68,2.67-4.01,4.01-.54,.54-.54,1.05,0,1.58,.4,.39,.81,.77,1.12,1.06-.49,1.26-.92,2.39-1.37,3.52-.05,.11-.25,.23-.39,.23-.48,.03-.96,0-1.44,.01-.68,.01-1.04,.37-1.04,1.05,0,1.94,0,3.88,0,5.82,0,.67,.37,1.04,1.04,1.05,.48,.01,.96-.01,1.44,.01,.14,0,.34,.12,.39,.23,.46,1.12,.89,2.26,1.37,3.51-.3,.28-.7,.64-1.09,1.02-.59,.58-.59,1.08-.02,1.65,1.32,1.33,2.65,2.66,3.98,3.98,.56,.56,1.06,.56,1.62,0,.39-.4,.77-.81,1.06-1.12,1.24,.49,2.36,.91,3.47,1.37,.13,.05,.26,.26,.27,.4,.03,.49,0,.99,.02,1.49,.02,.62,.38,.99,1,.99,1.97,.01,3.94,.01,5.91,0,.62,0,.98-.38,1-.99,.01-.5-.02-.99,.02-1.49,0-.14,.14-.35,.27-.4,1.11-.46,2.22-.88,3.47-1.37,.3,.32,.68,.75,1.09,1.15,.52,.51,1.03,.51,1.55,0,1.35-1.34,2.7-2.69,4.04-4.05,.53-.54,.52-1.05-.02-1.59-.39-.4-.81-.77-1.12-1.07,.48-1.23,.91-2.35,1.36-3.45,.05-.13,.26-.26,.4-.27,.49-.03,.99,0,1.49-.02,.61-.02,.98-.39,.99-1,0-1.97,0-3.94,0-5.91,0-.62-.37-.98-.99-.99Zm-23.74,4.15c-.16-3.92,3.01-7.26,7.05-7.43,3.92-.16,7.25,3,7.42,7.05,.17,3.91-3.01,7.26-7.04,7.43-3.92,.16-7.26-3.01-7.42-7.05Z"/>
      <path class="cls-1" d="M85.43,59.57c-5.56,0-10.07,4.51-10.07,10.07s4.51,10.07,10.07,10.07,10.07-4.51,10.07-10.07-4.51-10.07-10.07-10.07Zm.19,17.31c-3.92,.16-7.26-3.01-7.42-7.05-.16-3.92,3.01-7.26,7.05-7.43,3.92-.16,7.25,3,7.42,7.05,.17,3.91-3.01,7.26-7.04,7.43Z"/>
    </g>
    <g>
      <path class="cls-2" d="M101.93,13.54c-.5-.01-.99,.01-1.49-.02-.14,0-.34-.12-.39-.23-.46-1.12-.88-2.25-1.37-3.51,.32-.3,.76-.68,1.16-1.09,.49-.5,.49-1.02,0-1.52-1.35-1.37-2.71-2.72-4.08-4.08-.52-.51-1.03-.5-1.55,.02-.4,.39-.77,.81-1.07,1.13-1.25-.48-2.38-.91-3.5-1.37-.12-.05-.23-.25-.24-.38-.03-.48,0-.96-.01-1.44-.01-.68-.37-1.04-1.05-1.04-1.94,0-3.88,0-5.82,0-.68,0-1.03,.37-1.05,1.04,0,.48,.02,.96-.01,1.44,0,.14-.12,.33-.24,.38-1.12,.45-2.25,.88-3.5,1.37-.29-.31-.65-.71-1.03-1.1-.56-.56-1.06-.57-1.62-.02-1.34,1.33-2.68,2.67-4.01,4.01-.54,.54-.54,1.05,0,1.58,.4,.39,.81,.77,1.12,1.06-.49,1.26-.92,2.39-1.37,3.52-.05,.11-.25,.23-.39,.23-.48,.03-.96,0-1.44,.01-.68,.01-1.04,.37-1.04,1.05,0,1.94,0,3.88,0,5.82,0,.67,.37,1.04,1.04,1.05,.48,.01,.96-.01,1.44,.01,.14,0,.34,.12,.39,.23,.46,1.12,.89,2.26,1.37,3.51-.3,.28-.7,.64-1.09,1.02-.59,.58-.59,1.08-.02,1.65,1.32,1.33,2.65,2.66,3.98,3.98,.56,.56,1.06,.56,1.62,0,.39-.4,.77-.81,1.06-1.12,1.24,.49,2.36,.91,3.47,1.37,.13,.05,.26,.26,.27,.4,.03,.49,0,.99,.02,1.49,.02,.62,.38,.99,1,.99,1.97,.01,3.94,.01,5.91,0,.62,0,.98-.38,1-.99,.01-.5-.02-.99,.02-1.49,0-.14,.14-.35,.27-.4,1.11-.46,2.22-.88,3.47-1.37,.3,.32,.68,.75,1.09,1.15,.52,.51,1.03,.51,1.55,0,1.35-1.34,2.7-2.69,4.04-4.05,.53-.54,.52-1.05-.02-1.59-.39-.4-.81-.77-1.12-1.07,.48-1.23,.91-2.35,1.36-3.45,.05-.13,.26-.26,.4-.27,.49-.03,.99,0,1.49-.02,.61-.02,.98-.39,.99-1,0-1.97,0-3.94,0-5.91,0-.62-.37-.98-.99-.99Zm-23.74,4.15c-.16-3.92,3.01-7.26,7.05-7.43,3.92-.16,7.25,3,7.42,7.05,.17,3.91-3.01,7.26-7.04,7.43-3.92,.16-7.26-3.01-7.42-7.05Z"/>
      <path class="cls-4" d="M101.93,13.54c-.5-.01-.99,.01-1.49-.02-.14,0-.34-.12-.39-.23-.46-1.12-.88-2.25-1.37-3.51,.32-.3,.76-.68,1.16-1.09,.49-.5,.49-1.02,0-1.52-1.35-1.37-2.71-2.72-4.08-4.08-.52-.51-1.03-.5-1.55,.02-.4,.39-.77,.81-1.07,1.13-1.25-.48-2.38-.91-3.5-1.37-.12-.05-.23-.25-.24-.38-.03-.48,0-.96-.01-1.44-.01-.68-.37-1.04-1.05-1.04-1.94,0-3.88,0-5.82,0-.68,0-1.03,.37-1.05,1.04,0,.48,.02,.96-.01,1.44,0,.14-.12,.33-.24,.38-1.12,.45-2.25,.88-3.5,1.37-.29-.31-.65-.71-1.03-1.1-.56-.56-1.06-.57-1.62-.02-1.34,1.33-2.68,2.67-4.01,4.01-.54,.54-.54,1.05,0,1.58,.4,.39,.81,.77,1.12,1.06-.49,1.26-.92,2.39-1.37,3.52-.05,.11-.25,.23-.39,.23-.48,.03-.96,0-1.44,.01-.68,.01-1.04,.37-1.04,1.05,0,1.94,0,3.88,0,5.82,0,.67,.37,1.04,1.04,1.05,.48,.01,.96-.01,1.44,.01,.14,0,.34,.12,.39,.23,.46,1.12,.89,2.26,1.37,3.51-.3,.28-.7,.64-1.09,1.02-.59,.58-.59,1.08-.02,1.65,1.32,1.33,2.65,2.66,3.98,3.98,.56,.56,1.06,.56,1.62,0,.39-.4,.77-.81,1.06-1.12,1.24,.49,2.36,.91,3.47,1.37,.13,.05,.26,.26,.27,.4,.03,.49,0,.99,.02,1.49,.02,.62,.38,.99,1,.99,1.97,.01,3.94,.01,5.91,0,.62,0,.98-.38,1-.99,.01-.5-.02-.99,.02-1.49,0-.14,.14-.35,.27-.4,1.11-.46,2.22-.88,3.47-1.37,.3,.32,.68,.75,1.09,1.15,.52,.51,1.03,.51,1.55,0,1.35-1.34,2.7-2.69,4.04-4.05,.53-.54,.52-1.05-.02-1.59-.39-.4-.81-.77-1.12-1.07,.48-1.23,.91-2.35,1.36-3.45,.05-.13,.26-.26,.4-.27,.49-.03,.99,0,1.49-.02,.61-.02,.98-.39,.99-1,0-1.97,0-3.94,0-5.91,0-.62-.37-.98-.99-.99Zm-23.74,4.15c-.16-3.92,3.01-7.26,7.05-7.43,3.92-.16,7.25,3,7.42,7.05,.17,3.91-3.01,7.26-7.04,7.43-3.92,.16-7.26-3.01-7.42-7.05Z"/>
      <path class="cls-1" d="M85.43,7.43c-5.56,0-10.07,4.51-10.07,10.07s4.51,10.07,10.07,10.07,10.07-4.51,10.07-10.07-4.51-10.07-10.07-10.07Zm.19,17.31c-3.92,.16-7.26-3.01-7.42-7.05-.16-3.92,3.01-7.26,7.05-7.43,3.92-.16,7.25,3,7.42,7.05,.17,3.91-3.01,7.26-7.04,7.43Z"/>
    </g>
  </g>
</svg>