<?xml version="1.0" encoding="UTF-8"?>
<svg id="Layer_2" data-name="Layer 2" xmlns="http://www.w3.org/2000/svg" viewBox="0 0 49.07 49.07">
  <defs>
    <style>
      .cls-1 {
        fill: #ca9e43;
      }
    </style>
  </defs>
  <g id="country_-_newicons" data-name="country - newicons">
    <path class="cls-1" d="M26.18,38.05c-1.4-1-3.24,.45-3.89,2.02-.57,1.37,.13,2.62,1.53,3.03,.78,.22,1.62,.17,2.36-.16,1.72-.81,1.54-2.8,.64-4.2-.17-.27-.39-.51-.64-.7Z"/>
    <path class="cls-1" d="M38.15,24.53c-.41,0-.82,.04-1.23,.1-1.47,.2-2.9,.62-4.23,1.25-.67,.34-1.3,.77-1.98,1.09-.69,.33-1.55,.31-2.18,.72-.41,.25-.7,.65-.83,1.11-.2,.87,.37,1.56,1.09,1.96,1.05,.58,2.11,1.14,3.14,1.75,.87,.51,1.85,1.29,2.93,1.12,.76-.12,1.42-.8,1.99-1.28,.73-.63,1.42-1.31,2.07-2.02,.79-.84,1.99-1.72,2.39-2.83,.22-.74,0-1.55-.59-2.07-.7-.64-1.62-.97-2.57-.92Z"/>
    <path class="cls-1" d="M49.06,24.01c0-.07,0-.13,0-.2,0-.11,0-.22-.01-.32,0-.18-.02-.36-.03-.54,0-.04,0-.08,0-.12,0-.13-.02-.25-.03-.38v-.07C47.93,10.58,38.62,1.22,26.83,.11c-.02,0-.04,0-.07,0-.21-.02-.42-.03-.63-.05-.06,0-.12,0-.18-.01-.18,0-.36-.02-.54-.03-.06,0-.13,0-.19,0-.23,0-.47-.01-.7-.01-.18,0-.37,0-.55,0-.09,0-.19,0-.28,0-.08,0-.16,0-.24,0-.14,0-.28,.01-.42,.02-.01,0-.03,0-.04,0C10.9,.81,1.17,10.29,.1,22.36c-.07,.71-.1,1.39-.1,2.17,0,.19,0,.38,0,.57v.2c0,.12,.01,.24,.02,.36,0,.09,0,.17,.01,.26,0,.1,.01,.2,.02,.3,0,.1,.01,.19,.02,.29,0,.08,.01,.17,.02,.25,0,.11,.02,.22,.03,.32,0,.08,.02,.15,.02,.23,0,.08,.01,.16,.03,.24l.02,.13c.21,1.68,.6,3.34,1.16,4.94,0,0,0,.01,0,.02,.05,.13,.1,.27,.14,.4,.02,.04,.03,.09,.05,.13,.04,.11,.08,.22,.13,.33,.03,.08,.06,.16,.1,.24,.03,.08,.06,.16,.1,.24,2.25,5.41,6.37,9.84,11.61,12.46,.02,0,.03,.02,.05,.02,.12,.06,.25,.12,.38,.18,.08,.04,.17,.08,.25,.12,.04,.02,.08,.04,.12,.06,3.21,1.48,6.71,2.24,10.25,2.23h.01c.2,0,.41,0,.61,0,.03,0,.06,0,.09,0,.18,0,.36-.01,.54-.02,0,0,.02,0,.03,0,12.54-.66,22.56-10.68,23.22-23.22,0,0,0-.01,0-.02,0-.18,.02-.36,.02-.54v-.09c0-.21,.01-.42,.01-.63h0c0-.18,0-.35,0-.53Zm-24.53,21.82c-.09,0-.18,0-.27,0-.11,0-.34-.23-.43-.29-.17-.12-.34-.23-.5-.35-.31-.23-.62-.46-.92-.7-.74-.57-1.39-1.26-1.93-2.02-1.14-1.72-.93-3.72,.11-5.43,.74-1.22,1.9-2.19,2.77-3.32,1-1.23,1.76-2.64,2.23-4.15,.43-1.37,.17-2.85-.68-4-1.02-1.26-2.9-1.93-4.41-2.33-.19-.05-.38-.09-.58-.12-.43-.07-.86-.11-1.3-.13-1.57-.09-3.14-.06-4.7,.1-1.37,.13-2.81,.56-4.11-.1-1.12-.57-2.13-1.34-3.36-1.66-.96-.22-1.94-.32-2.92-.31C5.49,9.39,16.48,1.58,28.08,3.54c.33,.06,.66,.12,.99,.19,.1,1.62,1.57,2.61,.81,4.34-1.02,2.33-3.91,3.02-5.09,5.22-.56,.96-.51,2.16,.13,3.08,.43,.67,.82,1.36,1.17,2.08,.51,1,1.07,2.3,2.09,2.88,2.98,1.72,3.22-3.63,5.27-3.97,1.11-.18,1.73,.44,2.25,1.32,.62,1.05,1.12,1.97,2.43,2.23,.83,.12,1.67,.12,2.49,0,.41-.04,4.76-.73,4.71-.96,2.53,11.49-4.73,22.85-16.21,25.38-1.5,.33-3.04,.5-4.58,.5h0Z"/>
  </g>
</svg>