<?xml version="1.0" encoding="UTF-8"?>
<svg id="Layer_2" data-name="Layer 2" xmlns="http://www.w3.org/2000/svg" viewBox="0 0 70.75 60.64">
  <defs>
    <style>
      .cls-1 {
        fill: #fff;
      }

      .cls-2, .cls-3 {
        fill: #109ed9;
      }

      .cls-3 {
        font-family: ArialNarrow, Arial;
        font-size: 24.45px;
      }

      .cls-4 {
        fill: #ca9e43;
      }
    </style>
  </defs>
  <g id="enquirycenter">
    <g>
      <rect class="cls-4" y="19.91" width="56.57" height="40.73" rx="8.73" ry="8.73"/>
      <rect class="cls-1" x="3.55" y="22.47" width="49.47" height="35.61" rx="7.6" ry="7.6"/>
      <text class="cls-3" transform="translate(16.58 50.52)"><tspan x="0" y="0">&lt;&gt;</tspan></text>
      <path class="cls-2" d="M53.02,29.1c0-3.66-2.97-6.63-6.63-6.63H10.19c-3.66,0-6.63,2.97-6.63,6.63v.33H53.02v-.33Z"/>
    </g>
    <g>
      <circle class="cls-4" cx="39.66" cy="18.13" r="18.13" transform="translate(-3.69 13.4) rotate(-18.34)"/>
      <path class="cls-4" d="M63.69,47.16l-25.8-23.94c-1.7-1.58-1.8-4.24-.22-5.94h0c1.58-1.7,4.24-1.8,5.94-.22l25.8,23.94c1.7,1.58,1.8,4.24,.22,5.94h0c-1.58,1.7-4.24,1.8-5.94,.22Z"/>
      <circle class="cls-1" cx="39.66" cy="18.13" r="13.99" transform="translate(-3.69 13.37) rotate(-18.29)"/>
    </g>
  </g>
</svg>