<?xml version="1.0" encoding="UTF-8"?>
<svg id="Layer_2" data-name="Layer 2" xmlns="http://www.w3.org/2000/svg" viewBox="0 0 56 56">
  <defs>
    <style>
      .cls-1 {
        fill: #fff;
      }

      .cls-2 {
        fill: #00b478;
      }

      .cls-3 {
        fill: #ffe19e;
      }

      .cls-4 {
        fill: #ca9e43;
      }

      .cls-5 {
        fill: #43bb90;
      }

      .cls-6 {
        fill: none;
        stroke: #109ed9;
        stroke-linecap: round;
        stroke-linejoin: round;
      }
    </style>
  </defs>
  <g id="entity">
    <path class="cls-1" d="M7.47,5.6c-.37,0-.73,.07-1.07,.21-.34,.14-.65,.35-.91,.61-.26,.26-.47,.57-.61,.91-.14,.34-.21,.7-.21,1.07v12.13h5.6V8.4c0-.37-.07-.73-.21-1.07-.14-.34-.35-.65-.61-.91-.26-.26-.57-.47-.91-.61-.34-.14-.7-.21-1.07-.21Z"/>
    <path class="cls-1" d="M41.07,6.53h-3.73V42.93h3.73V6.53Z"/>
    <path class="cls-1" d="M50.4,.93h-5.6V42.93h5.6V.93Z"/>
    <path class="cls-1" d="M37.33,6.53v4.67h3.73V6.53h-3.73Z"/>
    <path class="cls-1" d="M50.4,.93h-5.6V5.6h5.6V.93Z"/>
    <path class="cls-3" d="M53.2,10.27h-2.8v1.87h2.8v-1.87Z"/>
    <path class="cls-3" d="M53.2,6.53h-2.8v1.87h2.8v-1.87Z"/>
    <path class="cls-3" d="M53.2,17.73h-2.8v1.87h2.8v-1.87Z"/>
    <path class="cls-3" d="M53.2,14h-2.8v1.87h2.8v-1.87Z"/>
    <path class="cls-3" d="M53.2,21.47h-2.8v1.87h2.8v-1.87Z"/>
    <path class="cls-3" d="M53.2,28.93h-2.8v1.87h2.8v-1.87Z"/>
    <path class="cls-3" d="M53.2,25.2h-2.8v1.87h2.8v-1.87Z"/>
    <path class="cls-1" d="M33.6,22.4v-6.53l-8.4-6.53-8.4,6.53v6.53l-3.73,3.73v28.93h24.27V26.13l-3.73-3.73Z"/>
    <path class="cls-1" d="M25.2,14.93l-2.8,1.87v3.73h5.6v-3.73l-2.8-1.87Z"/>
    <path class="cls-1" d="M32.67,31.73h-14.93v23.33h14.93V31.73Z"/>
    <path class="cls-5" d="M32.67,40.13h-14.93v1.87h14.93v-1.87Z"/>
    <path class="cls-5" d="M32.67,44.8h-14.93v1.87h14.93v-1.87Z"/>
    <path class="cls-5" d="M32.67,49.47h-14.93v1.87h14.93v-1.87Z"/>
    <path class="cls-1" d="M7.47,16.8c-.74,0-1.46,.14-2.14,.43-.68,.28-1.3,.69-1.82,1.21-.52,.52-.93,1.14-1.21,1.82-.28,.68-.43,1.41-.43,2.14V55.07H13.07V22.4c0-.74-.14-1.46-.43-2.14-.28-.68-.69-1.3-1.21-1.82s-1.14-.93-1.82-1.21c-.68-.28-1.41-.43-2.14-.43h0Z"/>
    <path class="cls-5" d="M32.67,35.47h-14.93v1.87h14.93v-1.87Z"/>
    <path class="cls-5" d="M8.4,29.87v2.8h-1.87v-2.8h-1.87v25.2h1.87v-3.73h1.87v3.73h1.87V29.87h-1.87Zm0,4.67v3.73h-1.87v-3.73h1.87Zm0,5.6v3.73h-1.87v-3.73h1.87Zm-1.87,9.33v-3.73h1.87v3.73h-1.87Z"/>
    <path class="cls-2" d="M43.87,54.13H0v1.87H43.87v-1.87Z"/>
    <path class="cls-1" d="M43.87,55.07c6.19,0,11.2-5.01,11.2-11.2s-5.01-11.2-11.2-11.2-11.2,5.01-11.2,11.2,5.01,11.2,11.2,11.2Z"/>
    <path class="cls-4" d="M51.33,34.31v-3.51h1.87v-1.87h-1.87v-1.87h1.87v-1.87h-1.87v-1.87h1.87v-1.87h-1.87v-1.87h1.87v-1.87h-1.87v-1.87h1.87v-1.87h-1.87v-1.87h1.87v-1.87h-1.87v-1.87h1.87v-1.87h-1.87V0h-7.47V31.73c-.62,0-1.25,.05-1.87,.14V5.6h-5.6V23.88l-1.87-1.87v-6.6l-9.33-7.26-9.33,7.26v6.6l-1.87,1.87v-1.48c0-1.05-.26-2.09-.74-3.02-.49-.93-1.19-1.73-2.06-2.33V8.4c0-.99-.39-1.94-1.09-2.64-.7-.7-1.65-1.09-2.64-1.09s-1.94,.39-2.64,1.09c-.7,.7-1.09,1.65-1.09,2.64v8.64c-.86,.6-1.57,1.4-2.06,2.33-.49,.93-.74,1.97-.74,3.02v31.73H0v1.87H43.87c2.53,0,4.99-.79,7.05-2.25,2.06-1.47,3.6-3.54,4.43-5.93s.88-4.97,.16-7.4-2.17-4.56-4.17-6.11h0ZM45.73,1.87h3.73v2.8h-3.73V1.87Zm0,4.67h3.73v26.57c-1.17-.61-2.43-1.03-3.73-1.23V6.53Zm-7.47,.93h1.87v2.8h-1.87v-2.8Zm0,4.67h1.87v20.19c-.64,.21-1.27,.47-1.87,.78V12.13ZM5.6,8.4c0-.5,.2-.97,.55-1.32,.35-.35,.82-.55,1.32-.55s.97,.2,1.32,.55c.35,.35,.55,.82,.55,1.32v7.74c-1.22-.36-2.52-.36-3.73,0v-7.74Zm2.8,45.73h-1.87v-2.8h1.87v2.8Zm0-4.67h-1.87v-3.73h1.87v3.73Zm0-5.6h-1.87v-3.73h1.87v3.73Zm0-5.6h-1.87v-3.73h1.87v3.73Zm3.73,15.87h-1.87V29.87h-1.87v2.8h-1.87v-2.8h-1.87v24.27h-1.87V22.4c0-1.24,.49-2.42,1.37-3.3,.88-.88,2.06-1.37,3.3-1.37s2.42,.49,3.3,1.37c.88,.88,1.37,2.06,1.37,3.3v31.73Zm4.67,0h-2.8V26.52l3.73-3.73v-6.46l7.47-5.81,7.47,5.81v6.46l3.73,3.73v7.79c-1.1,.86-2.05,1.91-2.8,3.1v-6.61H16.8v23.33Zm14.93,0h-13.07v-2.8h13.07v2.8Zm0-4.67h-13.07v-2.8h13.07v2.8Zm0-4.67h-13.07v-2.8h13.07v2.8Zm0-4.67h-13.07v-2.8h13.07v2.8Zm0-4.67h-13.07v-2.8h13.07v2.8Zm1.87,18.67v-3.81c.97,1.54,2.27,2.84,3.81,3.81h-3.81Zm10.27,0c-2.03,0-4.02-.6-5.7-1.73-1.69-1.13-3-2.73-3.78-4.61-.78-1.88-.98-3.94-.58-5.93,.4-1.99,1.37-3.82,2.81-5.26s3.27-2.41,5.26-2.81c1.99-.4,4.06-.19,5.93,.58,1.88,.78,3.48,2.09,4.61,3.78,1.13,1.69,1.73,3.67,1.73,5.7,0,2.72-1.09,5.33-3.01,7.26-1.92,1.92-4.53,3.01-7.26,3.01Z"/>
    <path class="cls-4" d="M21.47,16.3v5.17h7.47v-5.17l-3.73-2.49-3.73,2.49Zm5.6,3.3h-3.73v-2.3l1.87-1.24,1.87,1.24v2.3Z"/>
    <g>
      <path class="cls-6" d="M37.64,43.87c0-1.98,.55-3.83,1.5-5.41-.7-.33-1.36-.74-1.97-1.21-1.68,1.7-2.72,4.03-2.72,6.61,0,.44,.03,.87,.09,1.29,.99-.3,2.03-.55,3.11-.75,0-.18-.01-.36-.01-.54Z"/>
      <path class="cls-6" d="M49.66,43.87c0,.17,0,.33-.01,.5,1.23,.22,2.42,.5,3.54,.84,.06-.44,.1-.89,.1-1.34,0-2.7-1.14-5.13-2.95-6.84-.66,.55-1.4,1.03-2.18,1.41,.96,1.59,1.52,3.45,1.52,5.44Z"/>
      <path class="cls-6" d="M43.6,39.46c-1.6,0-3.11-.36-4.47-1-.95,1.58-1.5,3.43-1.5,5.41,0,.18,0,.36,.01,.54,1.88-.35,3.88-.54,5.95-.55v-4.4Z"/>
      <path class="cls-6" d="M43.78,43.86c2.04,0,4.01,.18,5.86,.5,0-.16,.01-.33,.01-.5,0-1.99-.55-3.85-1.52-5.44-1.37,.66-2.91,1.03-4.54,1.03v4.4c.06,0,.12,0,.18,0Z"/>
      <path class="cls-6" d="M43.6,34.36v.04s.03-.01,.04-.02c-.01,0-.03-.01-.04-.02Z"/>
      <path class="cls-6" d="M43.47,34.47c-2.46,.1-4.68,1.15-6.3,2.79,.61,.47,1.26,.88,1.97,1.21,1.03-1.71,2.54-3.1,4.33-4Z"/>
      <path class="cls-6" d="M48.14,38.43c.79-.38,1.52-.85,2.18-1.41-1.69-1.59-3.96-2.57-6.46-2.57-.02,0-.04,0-.06,0,1.79,.89,3.3,2.27,4.33,3.97Z"/>
      <path class="cls-6" d="M43.6,34.4s-.09,.04-.13,.07c.04,0,.09,0,.13,0v-.06Z"/>
      <path class="cls-6" d="M43.81,34.46c-.05-.03-.11-.05-.16-.08-.01,0-.03,.01-.04,.02v.06c.07,0,.14,0,.2,0Z"/>
      <path class="cls-6" d="M39.14,38.46c1.36,.64,2.87,1,4.47,1v-5s-.09,0-.13,0c-1.8,.89-3.3,2.28-4.33,4Z"/>
      <path class="cls-6" d="M43.6,39.46c1.62,0,3.16-.37,4.54-1.03-1.03-1.7-2.54-3.08-4.33-3.97-.07,0-.14,0-.2,0v5Z"/>
      <path class="cls-6" d="M37.65,44.41c-1.08,.2-2.12,.45-3.11,.75,.33,2.39,1.55,4.49,3.32,5.96,.58-.38,1.21-.71,1.86-.97-1.21-1.62-1.96-3.59-2.07-5.74Z"/>
      <path class="cls-6" d="M47.55,50.18c.74,.3,1.43,.68,2.08,1.13,1.89-1.46,3.2-3.63,3.56-6.1-1.12-.34-2.3-.63-3.54-.84-.1,2.18-.87,4.18-2.1,5.81Z"/>
      <path class="cls-6" d="M43.6,43.86v5.54c1.4,0,2.73,.27,3.94,.77,1.23-1.63,2-3.64,2.1-5.81-1.86-.33-3.82-.5-5.86-.5-.06,0-.12,0-.18,0Z"/>
      <path class="cls-6" d="M43.6,43.86c-2.07,.01-4.07,.2-5.95,.55,.11,2.15,.86,4.12,2.07,5.74,1.2-.48,2.51-.74,3.88-.74v-5.54Z"/>
      <path class="cls-6" d="M43.6,53.37s.03-.01,.04-.02c-.01,0-.03-.01-.04-.02v.04Z"/>
      <path class="cls-6" d="M39.73,50.15c-.66,.26-1.28,.59-1.86,.97,1.53,1.27,3.48,2.06,5.6,2.15-1.48-.73-2.76-1.81-3.74-3.12Z"/>
      <path class="cls-6" d="M43.81,53.28s.04,0,.06,0c2.17,0,4.17-.74,5.76-1.97-.64-.45-1.34-.83-2.08-1.13-.98,1.3-2.26,2.37-3.74,3.1Z"/>
      <path class="cls-6" d="M43.6,53.27v.06s.03,.01,.04,.02c.05-.03,.11-.05,.16-.08-.07,0-.14,0-.2,0Z"/>
      <path class="cls-6" d="M43.6,53.33v-.06s-.09,0-.13,0c.04,.02,.09,.05,.13,.07Z"/>
      <path class="cls-6" d="M39.73,50.15c.98,1.31,2.26,2.38,3.74,3.12,.04,0,.09,0,.13,0v-3.86c-1.37,0-2.68,.27-3.88,.74Z"/>
      <path class="cls-6" d="M47.55,50.18c-1.22-.49-2.55-.77-3.94-.77v3.86c.07,0,.14,0,.2,0,1.48-.73,2.76-1.8,3.74-3.1Z"/>
    </g>
  </g>
</svg>