<?xml version="1.0" encoding="UTF-8"?>
<svg id="Layer_2" data-name="Layer 2" xmlns="http://www.w3.org/2000/svg" viewBox="0 0 44.23 44.24">
  <defs>
    <style>
      .cls-1 {
        fill: #109ed9;
      }

      .cls-2 {
        fill: #ca9e43;
      }
    </style>
  </defs>
  <g id="facility">
    <g id="Layer_7" data-name="Layer 7">
      <path class="cls-1" d="M14.38,1.91c-.51-.1-1.03,.03-1.43,.36-.35,.3-.82,.39-1.26,.26-.16-.05-.33-.08-.5-.08-.94,0-1.71,.76-1.71,1.71,0,.05,.01,.1,.02,.15-.55,.3-.75,.99-.44,1.54s.99,.75,1.54,.44c.19-.1,.34-.26,.44-.44,.05,0,.1,.02,.15,.02,.44,0,.86-.16,1.2-.44,.35-.29,.83-.31,1.26-.18,.13,.04,.26,.05,.39,.05,.94,0,1.71-.76,1.71-1.71,0-.81-.57-1.51-1.36-1.67h0Z"/>
      <rect class="cls-1" x=".71" y="16.59" width="24.26" height="2.85"/>
      <polygon class="cls-1" points="22.12 9.28 17.84 9.28 17.12 16.41 22.83 16.41 22.12 9.28"/>
      <rect class="cls-1" x="5.98" y="38.79" width="2.32" height="3.75"/>
      <rect class="cls-1" x="19.26" y="31.39" width="4.28" height="2.85"/>
      <rect class="cls-1" x="12.13" y="31.39" width="4.28" height="2.85"/>
      <rect class="cls-1" x="4.99" y="31.39" width="4.28" height="2.85"/>
      <path class="cls-1" d="M25.08,1.91c-.51-.1-1.03,.03-1.43,.36-.35,.3-.82,.39-1.26,.26-.16-.05-.33-.08-.5-.08-.94,0-1.71,.76-1.71,1.71,0,.05,.01,.1,.02,.15-.55,.3-.75,.99-.44,1.54,.3,.55,.99,.75,1.54,.44,.19-.1,.34-.26,.44-.44,.05,0,.1,.02,.15,.02,.44,0,.86-.16,1.2-.44,.35-.29,.83-.31,1.26-.18,.13,.04,.26,.05,.39,.05,.94,0,1.71-.76,1.71-1.71,0-.81-.57-1.51-1.36-1.67h0Z"/>
      <polygon class="cls-1" points="11.42 9.28 7.13 9.28 6.42 16.41 12.13 16.41 11.42 9.28"/>
      <path class="cls-2" d="M43.52,2.85h-15.71c0-.18,0-.36-.04-.53-.29-1.55-1.78-2.56-3.33-2.27-.47,.09-.92,.3-1.29,.61-.25,.22-.59,.29-.91,.19-.27-.09-.56-.13-.85-.13-1.51,0-2.76,1.18-2.85,2.69-.88,.78-.96,2.13-.18,3.01,.29,.32,.66,.55,1.08,.66,.17,.04,.35,.06,.52,.06,.61,0,1.19-.26,1.59-.72,.66-.05,1.28-.29,1.79-.71,.29-.23,.71-.15,.9-.1V15.7h-.78l-.65-6.49c-.04-.36-.34-.64-.71-.64h-4.28c-.37,0-.67,.28-.71,.64l-.65,6.49h-3.7l-.65-6.49c-.04-.36-.34-.64-.71-.64H7.13c-.37,0-.67,.28-.71,.64l-.65,6.49H.71c-.39,0-.71,.32-.71,.71v2.85c0,.39,.32,.71,.71,.71h.71v8.32l-.92,.28c-.3,.09-.51,.37-.51,.68v2.14c0,.39,.32,.71,.71,.71s.71-.32,.71-.71v-1.61l12.84-3.85v1.18c0,.39,.32,.71,.71,.71,.08,0,.15-.01,.23-.04l11.9-3.97v18.99h-2.85v-4.99c0-.39-.32-.71-.71-.71h-4.28c-.39,0-.71,.32-.71,.71v4.99h-1.43v-4.99c0-.39-.32-.71-.71-.71h-4.28c-.39,0-.71,.32-.71,.71v4.99h-1.43v-4.99c0-.39-.32-.71-.71-.71H4.99c-.39,0-.71,.32-.71,.71v4.99H1.43v-8.56c0-.39-.32-.71-.71-.71s-.71,.32-.71,.71v9.28c0,.39,.32,.71,.71,.71H43.52c.39,0,.71-.32,.71-.71V11.42c0-.39-.32-.71-.71-.71s-.71,.32-.71,.71v1.43h-6.42V7.14h6.42v1.43c0,.39,.32,.71,.71,.71s.71-.32,.71-.71V3.57c0-.39-.32-.71-.71-.71Zm-21.07,1.75c-.3,.25-.68,.38-1.07,.39-.01,0-.09-.01-.1-.01-.28-.03-.55,.11-.68,.36-.19,.34-.62,.47-.96,.28-.34-.19-.47-.62-.28-.96,.07-.12,.16-.22,.28-.28,.24-.14,.39-.41,.36-.68,0-.01-.01-.11-.02-.12,0-.79,.64-1.43,1.43-1.43,.14,0,.28,.02,.42,.06,.78,.24,1.63,.07,2.25-.45,.33-.28,.77-.39,1.2-.3,.77,.16,1.26,.92,1.1,1.69-.14,.66-.72,1.13-1.4,1.13-.1,0-.19-.01-.28-.04-.84-.25-1.66-.12-2.24,.36Zm-.98,5.39l.14,1.43h-3.27l.14-1.43h2.99Zm-3.27,2.85h3.56l.29,2.85h-4.13l.29-2.85Zm-7.43-2.85l.14,1.43h-3.27l.14-1.43h2.99Zm-3.27,2.85h3.56l.29,2.85H7.21l.29-2.85ZM1.43,17.12H24.26v1.43H1.43v-1.43Zm13.98,7.28c-.18-.13-.41-.18-.63-.11l-11.92,3.58v-7.89H24.26v3.29l-8.56,2.85v-1.15c0-.23-.11-.44-.29-.57Zm27.4,2.71v5.71h-6.42v-5.71h6.42Zm0-9.99v5.71h-6.42v-5.71h6.42Zm-7.85,15.7h-6.42v-5.71h6.42v5.71Zm-6.42,1.43h14.27v1.43h-1.43c-.39,0-.71,.32-.71,.71s.32,.71,.71,.71h1.43v1.43h-9.99v-1.43h5.71c.39,0,.71-.32,.71-.71s-.32-.71-.71-.71h-6.42c-.39,0-.71,.32-.71,.71v2.85c0,.39,.32,.71,.71,.71h.71v2.85h-4.28v-8.56Zm9.27,5.71v2.85h-3.57v-2.85h3.57Zm-17.84-1.43h2.85v4.28h-2.85v-4.28Zm-7.13,0h2.85v4.28h-2.85v-4.28Zm-7.13,0h2.85v4.28h-2.85v-4.28Zm33.53,4.28v-2.85h3.57v2.85h-3.57Zm-4.28-29.97h-6.42V7.14h6.42v5.71Zm-7.13-7.13c-.39,0-.71,.32-.71,.71v7.13c0,.39,.32,.71,.71,.71h14.98v1.43h-14.98c-.39,0-.71,.32-.71,.71v4.28c0,.39,.32,.71,.71,.71s.71-.32,.71-.71v-3.57h6.42v5.71h-4.99c-.39,0-.71,.32-.71,.71s.32,.71,.71,.71h12.84v1.43h-14.27v-2.85c0-.39-.32-.71-.71-.71-.08,0-.15,.01-.23,.04l-1.91,.64V5.61c.58-.15,1.1-.47,1.48-.93,.1-.13,.19-.26,.26-.4h15.38v1.43h-14.98Zm-19.07,1.36c.17,.04,.35,.06,.52,.06,.61,0,1.19-.26,1.59-.72,.66-.05,1.28-.29,1.79-.71,.3-.24,.74-.15,.92-.09,.22,.07,.46,.1,.69,.1,1.58,0,2.86-1.27,2.86-2.85C17.13,1.28,15.86,0,14.28,0c-.67,0-1.31,.23-1.82,.65-.25,.22-.59,.29-.91,.19-.27-.09-.56-.13-.85-.13-1.51,0-2.76,1.18-2.85,2.69-.88,.78-.96,2.13-.18,3.01,.29,.32,.66,.55,1.08,.66Zm.18-2.69c.24-.14,.39-.41,.36-.69,0-.01-.01-.11-.02-.12,0-.79,.64-1.43,1.43-1.43,.14,0,.28,.02,.42,.06,.78,.24,1.63,.07,2.25-.45,.33-.28,.77-.39,1.2-.3,.77,.16,1.26,.92,1.1,1.69-.14,.66-.72,1.13-1.4,1.13-.1,0-.19-.01-.28-.04-.84-.25-1.66-.12-2.24,.36-.3,.25-.68,.38-1.07,.39-.01,0-.09-.01-.1-.01-.28-.03-.55,.11-.68,.36-.19,.34-.62,.47-.96,.28-.34-.19-.47-.62-.28-.96,.07-.12,.16-.22,.28-.28h0Zm-3.94,30.58h4.28c.39,0,.71-.32,.71-.71v-2.85c0-.39-.32-.71-.71-.71H4.99c-.39,0-.71,.32-.71,.71v2.85c0,.39,.32,.71,.71,.71Zm.71-2.85h2.85v1.43h-2.85v-1.43Zm6.42,2.85h4.28c.39,0,.71-.32,.71-.71v-2.85c0-.39-.32-.71-.71-.71h-4.28c-.39,0-.71,.32-.71,.71v2.85c0,.39,.32,.71,.71,.71Zm.71-2.85h2.85v1.43h-2.85v-1.43Zm6.42,2.85h4.28c.39,0,.71-.32,.71-.71v-2.85c0-.39-.32-.71-.71-.71h-4.28c-.39,0-.71,.32-.71,.71v2.85c0,.39,.32,.71,.71,.71Zm.71-2.85h2.85v1.43h-2.85v-1.43Z"/>
      <rect class="cls-1" x="13.11" y="38.79" width="2.32" height="3.75"/>
      <rect class="cls-1" x="20.24" y="38.79" width="2.32" height="3.75"/>
    </g>
  </g>
</svg>