<?xml version="1.0" encoding="UTF-8"?>
<svg id="Layer_2" data-name="Layer 2" xmlns="http://www.w3.org/2000/svg" viewBox="0 0 67.71 82.54">
  <defs>
    <style>
      .cls-1 {
        fill: #fff;
      }

      .cls-2 {
        fill: none;
        stroke: #109ed9;
        stroke-miterlimit: 10;
        stroke-width: 3px;
      }

      .cls-3 {
        fill: #ca9e43;
      }
    </style>
  </defs>
  <g id="internaluser_-_newicon" data-name="internaluser - newicon">
    <g>
      <path class="cls-3" d="M37.69,57.54c0,1.3,0,2.55,0,3.8,0,3.36,0,6.71,0,10.07,0,2.58-1.67,4.24-4.25,4.26-1.82,.01-3.64,.01-5.46,0-2.63-.02-4.29-1.67-4.29-4.3,0-4.32,0-8.64,0-12.95,0-.28,0-.57,0-.88-.35-.08-.65-.14-.95-.21-2.35-.52-4.01-2.43-4.03-4.82-.04-4.99-.08-9.99,.01-14.98,.08-4.41,3.59-7.76,8.01-7.81,2.65-.02,5.31-.03,7.96,0,4.38,.05,7.88,3.38,7.97,7.76,.1,5.02,.06,10.04,.01,15.06-.02,2.29-1.54,4.1-3.76,4.7-.38,.1-.76,.19-1.22,.3Zm-2.01,6.22c0-2.63-.03-5.25,.03-7.88,0-.38,.33-.92,.66-1.07,.27-.13,.75,.21,1.14,.34,.21,.07,.44,.24,.63,.21,1.51-.27,2.53-1.41,2.53-2.91,.02-4.99,.04-9.99-.01-14.98-.04-3.13-2.63-5.68-5.76-5.73-2.81-.05-5.62-.04-8.43,0-3.07,.05-5.69,2.53-5.74,5.58-.09,5.07-.05,10.14-.02,15.21,0,1.48,1.14,2.67,2.61,2.85,.18,.02,.39-.21,.6-.29,.34-.13,.76-.41,1.03-.31,.31,.12,.55,.54,.72,.89,.1,.21,.03,.51,.03,.77,0,4.94,0,9.88,0,14.82,0,1.69,.73,2.42,2.42,2.43,1.74,0,3.49,.01,5.23,0,1.6-.01,2.34-.77,2.34-2.35,0-2.52,0-5.04,0-7.57Z"/>
      <path class="cls-3" d="M30.66,13.74c3.85-.01,7.02,3.14,7.02,6.98,0,3.81-3.13,6.96-6.95,6.98-3.87,.02-7.03-3.09-7.06-6.94-.03-3.84,3.12-7,6.98-7.02Zm0,11.96c2.79,.01,5.02-2.2,5.02-4.97,0-2.77-2.25-5.02-5.01-5-2.74,.01-4.96,2.22-4.98,4.95-.02,2.78,2.18,5.01,4.97,5.02Z"/>
      <path class="cls-1" d="M35.68,63.76c0,2.52,0,5.04,0,7.57,0,1.59-.75,2.34-2.34,2.35-1.74,.01-3.49,.01-5.23,0-1.7,0-2.42-.74-2.42-2.43,0-4.94,0-9.88,0-14.82,0-.26,.08-.56-.03-.77-.17-.34-.41-.77-.72-.89-.27-.1-.68,.18-1.03,.31-.21,.08-.42,.31-.6,.29-1.47-.19-2.6-1.37-2.61-2.85-.03-5.07-.07-10.14,.02-15.21,.05-3.05,2.68-5.53,5.74-5.58,2.81-.04,5.62-.05,8.43,0,3.13,.05,5.73,2.59,5.76,5.73,.06,4.99,.03,9.99,.01,14.98,0,1.51-1.02,2.65-2.53,2.91-.19,.03-.42-.14-.63-.21-.39-.13-.87-.46-1.14-.34-.32,.16-.65,.69-.66,1.07-.06,2.63-.03,5.25-.03,7.88Zm-11.01-15.07c.53,0,1.02-.45,1-.98-.03-.6-.36-.97-.97-.98-.62-.01-.95,.37-1,.96-.04,.52,.45,1,.98,1Zm11.93,0c.57,.02,1.05-.42,1.08-.95,.02-.53-.42-1.01-.96-1.01-.62,0-.99,.33-1.02,.94-.03,.62,.35,.94,.9,1.02Zm-10.92,3.08c0-.61-.47-1.07-1-1.06-.53,0-1.02,.48-.98,1,.05,.59,.38,.97,1,.96,.62,0,.92-.39,.98-.91Zm10.98-1.06c-.54,.01-1.01,.48-.97,1.01,.04,.6,.39,.96,1.01,.95,.62,0,.94-.4,.97-.99,.03-.52-.48-.98-1.01-.97Zm-11.94-11.98c-.64,.03-1.01,.37-1.02,.96,0,.59,.34,.98,.97,.99,.62,0,.99-.35,1-.95,.01-.61-.36-.94-.94-1Zm11.97,1.96c.6-.05,.97-.38,.97-.98,0-.59-.36-.97-.98-.97-.62,0-.98,.36-.98,.97,0,.61,.37,.93,.99,.98Zm-11.96,4.02c.58-.1,.94-.42,.94-1.04,0-.53-.5-.98-1.03-.96-.52,.02-1.01,.52-.96,1.04,.06,.6,.42,.92,1.04,.97Zm11.87,0c.6,0,1.08-.46,1.09-.98,0-.51-.48-1.01-.99-1.01-.52,0-1.02,.47-1,.99,.02,.61,.39,.93,.9,1Z"/>
      <path class="cls-1" d="M30.66,25.7c-2.79-.01-4.99-2.24-4.97-5.02,.02-2.73,2.24-4.94,4.98-4.95,2.76-.01,5.01,2.24,5.01,5,0,2.77-2.24,4.99-5.02,4.97Z"/>
      <path class="cls-3" d="M24.67,48.69c-.53,0-1.02-.48-.98-1,.05-.59,.38-.97,1-.96,.62,.01,.95,.38,.97,.98,.02,.53-.47,.99-1,.98Z"/>
      <path class="cls-3" d="M36.6,48.68c-.55-.09-.93-.41-.9-1.02,.03-.6,.4-.94,1.02-.94,.54,0,.98,.48,.96,1.01-.02,.53-.51,.97-1.08,.95Z"/>
      <path class="cls-3" d="M25.68,51.76c-.07,.51-.36,.9-.98,.91-.62,0-.95-.37-1-.96-.04-.52,.45-1,.98-1,.53,0,1,.45,1,1.06Z"/>
      <path class="cls-3" d="M36.66,50.7c.53-.01,1.04,.45,1.01,.97-.03,.59-.35,.98-.97,.99-.62,0-.96-.35-1.01-.95-.04-.53,.43-1,.97-1.01Z"/>
      <path class="cls-3" d="M24.73,38.72c.59,.06,.96,.39,.94,1-.01,.6-.38,.96-1,.95-.62,0-.98-.39-.97-.99,0-.59,.38-.94,1.02-.96Z"/>
      <path class="cls-3" d="M36.69,40.68c-.62-.05-.99-.37-.99-.98,0-.61,.37-.96,.98-.97,.62,0,.98,.38,.98,.97,0,.6-.37,.94-.97,.98Z"/>
      <path class="cls-3" d="M24.73,44.7c-.61-.05-.97-.37-1.04-.97-.05-.51,.43-1.01,.96-1.04,.52-.02,1.03,.44,1.03,.96,0,.61-.36,.94-.94,1.04Z"/>
      <path class="cls-3" d="M36.6,44.69c-.52-.08-.88-.39-.9-1-.02-.52,.48-1,1-.99,.52,0,1,.5,.99,1.01,0,.52-.49,.99-1.09,.98Z"/>
    </g>
    <g>
      <line class="cls-2" x1="67.71" y1="26.57" x2="46.08" y2="26.57"/>
      <line class="cls-2" x1="45.24" y1="25.82" x2="54.31" y2="33.93"/>
      <line class="cls-2" x1="53.93" y1="18.34" x2="45.83" y2="27.42"/>
    </g>
    <path class="cls-2" d="M59.91,81.04H1.5V1.5H56.9"/>
  </g>
</svg>