<?xml version="1.0" encoding="UTF-8"?>
<svg id="Layer_2" data-name="Layer 2" xmlns="http://www.w3.org/2000/svg" viewBox="0 0 51.64 48.53">
  <defs>
    <style>
      .cls-1 {
        fill: #ca9e43;
        fill-rule: evenodd;
      }
    </style>
  </defs>
  <g id="legalrep">
    <path class="cls-1" d="M16.62,29.77l3.69,10.85,1.86-6.44-.91-1c-.41-.6-.5-1.12-.27-1.57,.49-.97,1.51-.79,2.47-.79s2.23-.19,2.54,1.06c.11,.42-.03,.86-.32,1.31l-.91,1,1.86,6.44,3.34-10.85c.72,.64,1.85,1.13,3.16,1.55,.2-.24,.41-.47,.63-.68,1.9-1.9,4.52-3.07,7.41-3.07s5.51,1.17,7.41,3.07,3.07,4.52,3.07,7.41-1.17,5.51-3.07,7.41-4.52,3.07-7.41,3.07c-2.19,0-4.23-.68-5.92-1.83H2.55c-1.6-.12-2.42-.95-2.55-2.38,.41-2.76,.52-6.37,2.2-8.59,.61-.81,1.37-1.4,2.21-1.87,2.66-1.48,9.79-1.92,12.2-4.08h0Zm19.15,9.17l1.91-2,2.75,2.65,4.29-5.71,2.13,1.72c-1,1.24-4.58,6.16-5.37,6.79-.64,.53-1.57,.53-2.16-.05l-3.55-3.4h0Zm11.7-7.21c-1.61-1.61-3.85-2.61-6.31-2.61s-4.7,1-6.31,2.61-2.61,3.85-2.61,6.31,1,4.7,2.61,6.31,3.85,2.61,6.31,2.61,4.7-1,6.31-2.61,2.61-3.85,2.61-6.31c0-2.47-1-4.7-2.61-6.31h0ZM14.84,14.25c.29,.08,.58,.09,.89,.03l-.53-4.16c.27-1.03,.68-1.83,1.23-2.42,.57-.61,1.29-1,2.14-1.16,1.13-.08,1.47,.74,2.6,1.47,3.44,2.2,6.35,2.94,10.59,2.99l-.53,2.66c-.07,.11-.11,.24-.1,.38,0,.02,0,.05,0,.07l-.08,.38c.12,0,.23,.01,.34,0,.11,.06,.23,.1,.37,.08,.74-.07,1.19,0,1.31,.25,.17,.34,.03,1.02-.46,2.12l-2.32,3.83c-.87,1.42-1.74,2.85-2.85,3.89-1.07,1-2.38,1.66-4.18,1.66-1.66,0-2.91-.64-3.95-1.59-1.08-.98-1.95-2.32-2.77-3.64l-2.06-3.28h0c-.63-.96-.96-1.77-.98-2.4,0-.21,.03-.4,.1-.55,.06-.13,.16-.25,.29-.34,.22-.15,.53-.24,.94-.26h0Zm18.35-.76l.13-5.35c-.16-2.17-.87-3.82-2.02-5.06C28.49,.04,23.23-.74,19.27,.69c-.67,.24-1.3,.55-1.87,.91-1.63,1.04-2.96,2.56-3.48,4.44-.13,.45-.21,.89-.26,1.34-.08,1.87-.04,4.11,.1,5.89-.18,.07-.35,.16-.5,.26-.32,.21-.56,.5-.71,.83-.15,.32-.21,.68-.2,1.08,.03,.84,.42,1.88,1.17,3l2.06,3.28c.87,1.38,1.78,2.79,2.98,3.88,1.24,1.13,2.74,1.9,4.75,1.9,2.15,0,3.71-.79,4.99-1.98,1.23-1.15,2.15-2.65,3.06-4.14l2.35-3.87s.03-.05,.03-.07h0c.64-1.46,.78-2.48,.45-3.15-.19-.42-.52-.68-.97-.82h0Z"/>
  </g>
</svg>