<?xml version="1.0" encoding="UTF-8"?>
<svg id="Layer_2" data-name="Layer 2" xmlns="http://www.w3.org/2000/svg" viewBox="0 0 50.31 37">
  <defs>
    <style>
      .cls-1, .cls-2 {
        fill: #fff;
      }

      .cls-2 {
        stroke: #ca9e43;
        stroke-miterlimit: 10;
        stroke-width: 2px;
      }

      .cls-3 {
        opacity: .86;
      }

      .cls-4 {
        fill: #109ed9;
      }
    </style>
  </defs>
  <g id="license">
    <g class="cls-3">
      <path class="cls-2" d="M4.97,35.8l40.2,.2c2.2,.01,4-1.76,4.01-3.97l.13-26.83c.01-2.2-1.77-4-3.97-4.01L5.14,1c-2.2-.01-4,1.76-4.01,3.97l-.13,26.83c-.01,2.2,1.76,3.99,3.97,4.01Z"/>
    </g>
    <path class="cls-4" d="M22.87,33.11l20.49,.1c1.44,0,2.62-1.16,2.63-2.6l.11-22.79c0-1.44-1.16-2.62-2.6-2.63l-20.49-.1c-1.44,0-2.62,1.16-2.63,2.6l-.11,22.79c0,1.44,1.16,2.62,2.6,2.63Z"/>
    <path class="cls-4" d="M6.17,28.85h11.84c.41,0,.73,.33,.73,.73v2.81c0,.41-.33,.73-.73,.73H6.17c-.41,0-.74-.33-.74-.74v-2.81c0-.41,.33-.73,.73-.73Z" transform="translate(24.03 62.03) rotate(-179.72)"/>
    <path class="cls-4" d="M5.83,27.53l12.51,.06c.22,0,.4-.18,.4-.4v-.47c0-.22-.17-.4-.4-.4l-12.51-.06c-.22,0-.4,.18-.4,.4v.47c0,.22,.17,.4,.4,.4Z"/>
    <g>
      <path class="cls-4" d="M16.86,8.39c-.88-2.46-3.23-3.97-5.71-3.9-.6,.02-1.21,.13-1.8,.34-1.81,.65-3.1,2.08-3.63,3.78-.37,1.18-.37,2.48,.08,3.73,.05,.12,.09,.25,.15,.37,.24,.54,.54,1.03,.91,1.46,1.54,1.81,4.09,2.57,6.46,1.73,3.06-1.09,4.65-4.46,3.56-7.52Zm-4.05,6.13c-1.78,.64-3.69,.06-4.84-1.29-.28-.32-.51-.69-.68-1.1-.04-.09-.08-.18-.11-.28-.34-.94-.33-1.92-.06-2.8,.4-1.27,1.37-2.35,2.72-2.84,.45-.16,.9-.24,1.35-.26,1.86-.06,3.62,1.08,4.28,2.92,.82,2.29-.37,4.82-2.67,5.64Z"/>
      <path class="cls-4" d="M7.11,9.05l-1.41-.44c.53-1.7,1.83-3.14,3.63-3.78,.6-.21,1.2-.32,1.8-.34l.04,1.47c-.45,.01-.91,.1-1.35,.26-1.35,.48-2.33,1.56-2.72,2.84Z"/>
      <path class="cls-4" d="M7.28,12.13l-1.35,.59c-.05-.12-.1-.24-.15-.37-.45-1.25-.45-2.56-.08-3.73l1.41,.44c-.28,.88-.28,1.86,.06,2.8,.03,.09,.07,.18,.11,.28Z"/>
      <path class="cls-4" d="M6.84,14.18c-.37-.43-.68-.92-.91-1.46l1.35-.59c.18,.41,.41,.77,.68,1.1l-1.12,.95Z"/>
    </g>
    <g>
      <path class="cls-4" d="M10.24,18.71c-.36-1.01-1.33-1.63-2.35-1.6-.25,0-.5,.05-.74,.14-.74,.27-1.27,.86-1.49,1.55-.15,.48-.15,1.02,.03,1.53,.02,.05,.04,.1,.06,.15,.1,.22,.22,.42,.38,.6,.63,.74,1.68,1.06,2.65,.71,1.26-.45,1.91-1.83,1.46-3.09Zm-1.67,2.52c-.73,.26-1.52,.03-1.99-.53-.11-.13-.21-.28-.28-.45-.02-.04-.03-.08-.04-.11-.14-.39-.14-.79-.02-1.15,.16-.52,.56-.97,1.12-1.17,.18-.06,.37-.1,.56-.1,.76-.02,1.49,.44,1.76,1.2,.34,.94-.15,1.98-1.1,2.32Z"/>
      <path class="cls-4" d="M6.23,18.98l-.58-.18c.22-.7,.75-1.29,1.49-1.55,.24-.09,.49-.13,.74-.14l.02,.6c-.18,0-.37,.04-.56,.1-.56,.2-.96,.64-1.12,1.17Z"/>
      <path class="cls-4" d="M6.3,20.25l-.55,.24s-.04-.1-.06-.15c-.18-.51-.18-1.05-.03-1.53l.58,.18c-.11,.36-.12,.76,.02,1.15,.01,.04,.03,.08,.04,.11Z"/>
      <path class="cls-4" d="M6.12,21.09c-.15-.18-.28-.38-.38-.6l.55-.24c.07,.17,.17,.32,.28,.45l-.46,.39Z"/>
    </g>
    <rect class="cls-1" x="23.86" y="7.34" width="10.96" height="2.92" rx="1.1" ry="1.1"/>
    <rect class="cls-1" x="23.86" y="12.72" width="20.61" height="2.92" rx="1.1" ry="1.1"/>
    <rect class="cls-1" x="23.86" y="18.78" width="9.33" height="2.92" rx="1.1" ry="1.1"/>
    <rect class="cls-1" x="34.81" y="18.78" width="9.66" height="2.92" rx="1.1" ry="1.1"/>
    <rect class="cls-1" x="23.86" y="24" width="16.11" height="2.92" rx="1.1" ry="1.1"/>
  </g>
</svg>