<?xml version="1.0" encoding="UTF-8"?>
<svg id="Layer_2" data-name="Layer 2" xmlns="http://www.w3.org/2000/svg" viewBox="0 0 50.51 77.87">
  <defs>
    <style>
      .cls-1 {
        fill: none;
        stroke: #ca9e43;
        stroke-miterlimit: 10;
      }

      .cls-2 {
        fill: #ca9e43;
      }
    </style>
  </defs>
  <g id="safetyofficer">
    <ellipse class="cls-1" cx="25.25" cy="18.22" rx="11.16" ry="12.75"/>
    <path class="cls-2" d="M35.03,16.04h-.34v-.56c0-.62-.6-1.13-1.35-1.13H17.17c-.74,0-1.35,.5-1.35,1.13v.56h-.34c-.37,0-.68,.25-.68,.56v2.25c0,.31,.3,.56,.68,.56h.38c.33,2.22,2.6,3.94,5.35,3.94,1.22,0,1.8-.21,2.7-.56,.23-.09,.67-.56,1.35-.54,.67-.03,1.12,.45,1.35,.54,.9,.35,1.48,.56,2.7,.56,2.75,0,5.01-1.72,5.35-3.94h.38c.37,0,.67-.25,.67-.56v-2.25c0-.31-.3-.56-.67-.56Zm-5.73,6.05c-.75,0-1.42-.29-2.07-.57-.63-.27-1.28-.55-1.97-.55s-1.34,.28-1.97,.55c-.65,.28-1.33,.57-2.07,.57-1.03,0-2.01-.34-2.74-.95-.73-.61-1.14-1.42-1.14-2.29,0-2.72,.62-3.23,3.88-3.23h8.09c1.77,0,2.66,.17,3.17,.59,.51,.42,.71,1.17,.71,2.64,0,1.78-1.74,3.23-3.88,3.23Z"/>
    <path class="cls-2" d="M8.76,14.55v.02c-.55,.91-.85,2.1-.76,3.39,.18,2.74,2,4.88,4.08,4.78,.04,.61,.63,1.07,1.32,1.04,.69-.04,1.22-.56,1.18-1.17l-.65-9.94c-.04-.61-.63-1.08-1.32-1.04-.69,.03-1.22,.56-1.18,1.17-.04,0-.07,.01-.11,.01,.43-2.71,1.86-5.15,3.94-7.01,.54,.03,1.52-.36,2.49-1.04,.46-.32,.85-.66,1.15-.98,.57,.07,1.49-.08,2.47-.44,.72-.26,1.33-.58,1.74-.89,.53,.18,1.28,.29,2.14,.29s1.62-.11,2.14-.29c.41,.31,1.02,.63,1.74,.89,.99,.36,1.91,.51,2.48,.44,.29,.32,.69,.66,1.15,.98,.97,.68,1.95,1.07,2.49,1.04,2.09,1.86,3.51,4.3,3.94,7.01-.04,0-.07-.01-.11-.01,.04-.61-.49-1.13-1.18-1.17-.69-.04-1.29,.43-1.32,1.04l-.65,9.94c-.04,.61,.49,1.13,1.18,1.17,.69,.03,1.28-.43,1.32-1.04,2.07,.1,3.9-2.04,4.08-4.78,.08-1.29-.22-2.48-.76-3.39v-.02C41.75,6.53,34.35,0,25.25,0S8.76,6.53,8.76,14.55Z"/>
    <g>
      <path class="cls-2" d="M0,70.71c0,2.19,1.89,3.97,4.23,3.97l15.52,1.32c2.34,0,4.23-1.78,4.23-3.97v-3.98H0v2.65Z"/>
      <path class="cls-2" d="M9.85,31.81l-4.2,.49,1.3,10.49c.71,4.9-2.27,9.47-6.95,11.24v4.76H15.8l-5.95-26.98Z"/>
      <polygon class="cls-2" points="50.51 77.87 50.51 77.87 50.51 77.87 50.51 77.87"/>
      <rect class="cls-2" x="25.76" y="61.43" width="22.2" height="3.97"/>
      <rect class="cls-2" y="61.43" width="23.98" height="3.97"/>
      <path class="cls-2" d="M25.76,72.03c0,.94-.26,1.82-.72,2.6,.78,.84,1.91,1.38,3.18,1.38l15.52-1.32c2.34,0,4.23-1.78,4.23-3.97v-2.65H25.76v3.98Z"/>
      <path class="cls-2" d="M41.02,42.78l1.31-10.49-4.2-.49-5.96,26.98h15.8v-4.76c-4.67-1.77-7.66-6.34-6.95-11.24Z"/>
      <polygon class="cls-2" points="13.09 31.42 19.13 58.78 23.98 58.78 23.98 45.54 16.93 30.97 13.09 31.42"/>
      <polygon class="cls-2" points="25.76 58.78 28.84 58.78 34.88 31.42 31.04 30.97 24.94 43.56 25.76 45.25 25.76 58.78"/>
    </g>
  </g>
</svg>