<?xml version="1.0" encoding="UTF-8"?>
<svg id="Layer_2" data-name="Layer 2" xmlns="http://www.w3.org/2000/svg" viewBox="0 0 116.96 73.5">
  <defs>
    <style>
      .cls-1 {
        fill: none;
        stroke: #109ed9;
        stroke-miterlimit: 10;
        stroke-width: 3px;
      }

      .cls-2 {
        fill: #ca9e43;
      }
    </style>
  </defs>
  <g id="systemlookup_-_newicons" data-name="systemlookup - newicons">
    <path class="cls-2" d="M32.99,13.14c-.48-.01-.96,.01-1.44-.02-.13,0-.33-.12-.37-.23-.44-1.09-.86-2.19-1.33-3.41,.31-.29,.73-.66,1.12-1.06,.48-.48,.47-.99,0-1.47-1.31-1.32-2.63-2.64-3.96-3.96-.5-.5-1-.49-1.5,.02-.38,.38-.75,.79-1.03,1.09-1.21-.47-2.31-.88-3.4-1.33-.11-.05-.22-.24-.23-.37-.03-.46,0-.93-.01-1.4-.01-.65-.36-1.01-1.02-1.01-1.88,0-3.76,0-5.64,0-.66,0-1,.35-1.02,1.01,0,.47,.01,.93-.01,1.4,0,.13-.12,.32-.23,.37-1.09,.44-2.19,.86-3.4,1.33-.28-.3-.63-.69-1-1.06-.54-.55-1.03-.55-1.57-.01-1.3,1.29-2.6,2.59-3.89,3.89-.52,.52-.52,1.02,0,1.54,.38,.38,.79,.74,1.09,1.02-.47,1.22-.89,2.32-1.33,3.41-.05,.11-.24,.22-.37,.23-.46,.03-.93,0-1.4,.01-.66,.01-1.01,.36-1.01,1.02,0,1.88,0,3.76,0,5.64,0,.65,.36,1.01,1.01,1.02,.47,.01,.93-.01,1.4,.01,.13,0,.33,.11,.38,.22,.44,1.09,.86,2.19,1.33,3.41-.29,.27-.68,.62-1.06,.99-.57,.56-.57,1.04-.01,1.6,1.28,1.29,2.57,2.58,3.86,3.86,.54,.54,1.03,.54,1.57,0,.38-.38,.74-.79,1.03-1.09,1.21,.47,2.29,.89,3.36,1.33,.12,.05,.25,.25,.26,.39,.03,.48,0,.96,.02,1.44,.02,.6,.37,.96,.97,.96,1.91,0,3.82,0,5.74,0,.6,0,.95-.37,.97-.96,.01-.48-.02-.97,.02-1.44,0-.14,.14-.34,.26-.39,1.07-.44,2.16-.86,3.37-1.33,.29,.31,.66,.73,1.06,1.12,.5,.5,1,.49,1.51,0,1.31-1.3,2.62-2.61,3.92-3.92,.52-.52,.51-1.01-.02-1.54-.38-.38-.79-.75-1.09-1.04,.47-1.19,.88-2.28,1.32-3.35,.05-.12,.25-.25,.39-.26,.48-.03,.96,0,1.44-.02,.59-.02,.96-.38,.96-.97,0-1.91,0-3.82,0-5.74,0-.6-.36-.95-.96-.96Zm-23.03,4.03c-.16-3.8,2.92-7.05,6.83-7.2,3.8-.15,7.03,2.91,7.2,6.84,.16,3.79-2.92,7.04-6.83,7.2-3.8,.16-7.04-2.92-7.2-6.84Z"/>
    <path class="cls-2" d="M89.92,19.86c-14.93,0-27.03,16.89-27.03,16.89,0,0,12.1,16.89,27.03,16.89s27.03-16.89,27.03-16.89c0,0-12.1-16.89-27.03-16.89Zm0,27.03c-5.6,0-10.14-4.54-10.14-10.14s4.54-10.14,10.14-10.14,10.14,4.54,10.14,10.14-4.54,10.14-10.14,10.14Z"/>
    <g>
      <line class="cls-1" x1="39.04" y1="24.67" x2="60.67" y2="24.67"/>
      <line class="cls-1" x1="61.51" y1="25.42" x2="52.44" y2="17.31"/>
      <line class="cls-1" x1="52.82" y1="32.9" x2="60.93" y2="23.82"/>
    </g>
    <g>
      <line class="cls-1" x1="61.51" y1="47.34" x2="39.88" y2="47.34"/>
      <line class="cls-1" x1="39.04" y1="46.58" x2="48.11" y2="54.69"/>
      <line class="cls-1" x1="47.73" y1="39.11" x2="39.63" y2="48.18"/>
    </g>
    <path class="cls-2" d="M32.99,52.67c-.48-.01-.96,.01-1.44-.02-.13,0-.33-.12-.37-.23-.44-1.09-.86-2.19-1.33-3.41,.31-.29,.73-.66,1.12-1.06,.48-.48,.47-.99,0-1.47-1.31-1.32-2.63-2.64-3.96-3.96-.5-.5-1-.49-1.5,.02-.38,.38-.75,.79-1.03,1.09-1.21-.47-2.31-.88-3.4-1.33-.11-.05-.22-.24-.23-.37-.03-.46,0-.93-.01-1.4-.01-.65-.36-1.01-1.02-1.01-1.88,0-3.76,0-5.64,0-.66,0-1,.35-1.02,1.01,0,.47,.01,.93-.01,1.4,0,.13-.12,.32-.23,.37-1.09,.44-2.19,.86-3.4,1.33-.28-.3-.63-.69-1-1.06-.54-.55-1.03-.55-1.57-.01-1.3,1.29-2.6,2.59-3.89,3.89-.52,.52-.52,1.02,0,1.54,.38,.38,.79,.74,1.09,1.02-.47,1.22-.89,2.32-1.33,3.41-.05,.11-.24,.22-.37,.23-.46,.03-.93,0-1.4,.01-.66,.01-1.01,.36-1.01,1.02,0,1.88,0,3.76,0,5.64,0,.65,.36,1.01,1.01,1.02,.47,.01,.93-.01,1.4,.01,.13,0,.33,.11,.38,.22,.44,1.09,.86,2.19,1.33,3.41-.29,.27-.68,.62-1.06,.99-.57,.56-.57,1.04-.01,1.6,1.28,1.29,2.57,2.58,3.86,3.86,.54,.54,1.03,.54,1.57,0,.38-.38,.74-.79,1.03-1.09,1.21,.47,2.29,.89,3.36,1.33,.12,.05,.25,.25,.26,.39,.03,.48,0,.96,.02,1.44,.02,.6,.37,.96,.97,.96,1.91,0,3.82,0,5.74,0,.6,0,.95-.37,.97-.96,.01-.48-.02-.97,.02-1.44,0-.14,.14-.34,.26-.39,1.07-.44,2.16-.86,3.37-1.33,.29,.31,.66,.73,1.06,1.12,.5,.5,1,.49,1.51,0,1.31-1.3,2.62-2.61,3.92-3.92,.52-.52,.51-1.01-.02-1.54-.38-.38-.79-.75-1.09-1.04,.47-1.19,.88-2.28,1.32-3.35,.05-.12,.25-.25,.39-.26,.48-.03,.96,0,1.44-.02,.59-.02,.96-.38,.96-.97,0-1.91,0-3.82,0-5.74,0-.6-.36-.95-.96-.96Zm-23.03,4.03c-.16-3.8,2.92-7.05,6.83-7.2,3.8-.15,7.03,2.91,7.2,6.84,.16,3.79-2.92,7.04-6.83,7.2-3.8,.16-7.04-2.92-7.2-6.84Z"/>
  </g>
</svg>