<?xml version="1.0" encoding="UTF-8"?>
<svg id="Layer_2" data-name="Layer 2" xmlns="http://www.w3.org/2000/svg" viewBox="0 0 66.84 66.85">
  <defs>
    <style>
      .cls-1 {
        fill: #109ed9;
      }

      .cls-2 {
        fill: #2c2c6d;
      }

      .cls-3 {
        fill: #ca9e43;
      }
    </style>
  </defs>
  <g id="systemsettings">
    <g>
      <path class="cls-2" d="M64.93,25.86c-.95-.03-1.9,.02-2.84-.03-.26-.01-.65-.23-.74-.45-.87-2.14-1.69-4.31-2.62-6.71,.62-.58,1.44-1.31,2.21-2.09,.94-.95,.93-1.95-.01-2.9-2.59-2.61-5.18-5.2-7.79-7.79-.99-.98-1.96-.96-2.96,.03-.75,.75-1.47,1.55-2.04,2.15-2.39-.92-4.55-1.74-6.69-2.61-.22-.09-.44-.47-.45-.73-.06-.91,0-1.83-.03-2.75-.03-1.29-.71-1.98-2-1.99-3.7-.01-7.4-.01-11.1,0-1.29,0-1.97,.7-2,1.99-.02,.92,.03,1.84-.03,2.75-.02,.26-.24,.64-.46,.73-2.14,.87-4.3,1.69-6.69,2.61-.55-.59-1.24-1.36-1.97-2.09-1.07-1.08-2.03-1.09-3.09-.03-2.56,2.55-5.11,5.1-7.66,7.66-1.02,1.03-1.03,2.01,0,3.03,.75,.75,1.55,1.46,2.15,2.02-.93,2.41-1.75,4.57-2.62,6.71-.09,.22-.48,.43-.74,.45-.91,.05-1.83,0-2.75,.03-1.29,.03-1.98,.7-1.99,2-.02,3.7-.01,7.4,0,11.11,0,1.28,.71,1.98,1.99,2.01,.92,.02,1.84-.03,2.75,.03,.26,.02,.65,.22,.74,.44,.87,2.14,1.69,4.31,2.62,6.71-.57,.53-1.34,1.22-2.08,1.95-1.12,1.11-1.13,2.05-.03,3.16,2.52,2.54,5.05,5.07,7.59,7.6,1.07,1.06,2.03,1.07,3.1,0,.75-.75,1.46-1.55,2.02-2.14,2.37,.93,4.51,1.75,6.62,2.62,.24,.1,.49,.5,.51,.77,.06,.94,0,1.9,.03,2.84,.03,1.18,.73,1.88,1.91,1.89,3.76,.02,7.53,.02,11.29,0,1.18,0,1.87-.72,1.9-1.9,.03-.95-.03-1.9,.03-2.84,.02-.27,.27-.67,.52-.77,2.11-.87,4.25-1.68,6.62-2.61,.57,.61,1.3,1.43,2.08,2.2,.98,.98,1.97,.97,2.96,0,2.58-2.57,5.16-5.14,7.72-7.72,1.02-1.02,1-2-.03-3.03-.75-.76-1.55-1.47-2.15-2.04,.92-2.35,1.73-4.49,2.6-6.6,.1-.24,.49-.5,.76-.52,.94-.07,1.9,0,2.84-.04,1.17-.04,1.88-.74,1.89-1.92,.02-3.76,.02-7.53,0-11.29,0-1.18-.71-1.87-1.9-1.9Zm-45.32,7.93c-.31-7.48,5.75-13.87,13.45-14.18,7.49-.3,13.84,5.73,14.18,13.45,.32,7.47-5.74,13.86-13.45,14.18-7.48,.31-13.86-5.74-14.18-13.45Z"/>
      <path class="cls-3" d="M64.93,25.86c-.95-.03-1.9,.02-2.84-.03-.26-.01-.65-.23-.74-.45-.87-2.14-1.69-4.31-2.62-6.71,.62-.58,1.44-1.31,2.21-2.09,.94-.95,.93-1.95-.01-2.9-2.59-2.61-5.18-5.2-7.79-7.79-.99-.98-1.96-.96-2.96,.03-.75,.75-1.47,1.55-2.04,2.15-2.39-.92-4.55-1.74-6.69-2.61-.22-.09-.44-.47-.45-.73-.06-.91,0-1.83-.03-2.75-.03-1.29-.71-1.98-2-1.99-3.7-.01-7.4-.01-11.1,0-1.29,0-1.97,.7-2,1.99-.02,.92,.03,1.84-.03,2.75-.02,.26-.24,.64-.46,.73-2.14,.87-4.3,1.69-6.69,2.61-.55-.59-1.24-1.36-1.97-2.09-1.07-1.08-2.03-1.09-3.09-.03-2.56,2.55-5.11,5.1-7.66,7.66-1.02,1.03-1.03,2.01,0,3.03,.75,.75,1.55,1.46,2.15,2.02-.93,2.41-1.75,4.57-2.62,6.71-.09,.22-.48,.43-.74,.45-.91,.05-1.83,0-2.75,.03-1.29,.03-1.98,.7-1.99,2-.02,3.7-.01,7.4,0,11.11,0,1.28,.71,1.98,1.99,2.01,.92,.02,1.84-.03,2.75,.03,.26,.02,.65,.22,.74,.44,.87,2.14,1.69,4.31,2.62,6.71-.57,.53-1.34,1.22-2.08,1.95-1.12,1.11-1.13,2.05-.03,3.16,2.52,2.54,5.05,5.07,7.59,7.6,1.07,1.06,2.03,1.07,3.1,0,.75-.75,1.46-1.55,2.02-2.14,2.37,.93,4.51,1.75,6.62,2.62,.24,.1,.49,.5,.51,.77,.06,.94,0,1.9,.03,2.84,.03,1.18,.73,1.88,1.91,1.89,3.76,.02,7.53,.02,11.29,0,1.18,0,1.87-.72,1.9-1.9,.03-.95-.03-1.9,.03-2.84,.02-.27,.27-.67,.52-.77,2.11-.87,4.25-1.68,6.62-2.61,.57,.61,1.3,1.43,2.08,2.2,.98,.98,1.97,.97,2.96,0,2.58-2.57,5.16-5.14,7.72-7.72,1.02-1.02,1-2-.03-3.03-.75-.76-1.55-1.47-2.15-2.04,.92-2.35,1.73-4.49,2.6-6.6,.1-.24,.49-.5,.76-.52,.94-.07,1.9,0,2.84-.04,1.17-.04,1.88-.74,1.89-1.92,.02-3.76,.02-7.53,0-11.29,0-1.18-.71-1.87-1.9-1.9Zm-45.32,7.93c-.31-7.48,5.75-13.87,13.45-14.18,7.49-.3,13.84,5.73,14.18,13.45,.32,7.47-5.74,13.86-13.45,14.18-7.48,.31-13.86-5.74-14.18-13.45Z"/>
      <path class="cls-1" d="M33.42,14.19c-10.62,0-19.23,8.61-19.23,19.23s8.61,19.23,19.23,19.23,19.23-8.61,19.23-19.23-8.61-19.23-19.23-19.23Zm.36,33.04c-7.48,.31-13.86-5.74-14.18-13.45-.31-7.48,5.75-13.87,13.45-14.18,7.49-.3,13.84,5.73,14.18,13.45,.32,7.47-5.74,13.86-13.45,14.18Z"/>
    </g>
  </g>
</svg>